<svg xmlns="http://www.w3.org/2000/svg" width="32" height="32" viewBox="0 0 32 32">
    <path fill="#949EB7" fill-rule="evenodd" d="M18.158 16l2.757-2.756c.248-.248.291-.613.102-.832a8.284 8.284 0 0 0-1.43-1.429c-.218-.19-.583-.146-.83.102L16 13.725l-2.77-2.64c-.234-.248-.599-.291-.832-.102-.525.423-.992.89-1.415 1.43-.19.218-.145.583.102.83L13.842 16l-2.771 2.77c-.233.234-.277.599-.088.832.423.525.89.992 1.415 1.415.233.19.598.145.831-.088L16 18.16l2.756 2.77c.248.233.613.277.832.088a8.284 8.284 0 0 0 1.429-1.43c.19-.218.146-.583-.102-.816L18.158 16z"/>
</svg>
