<?xml version="1.0" encoding="UTF-8" standalone="no"?>
<svg width="152px" height="194px" viewBox="0 0 152 194" version="1.1" xmlns="http://www.w3.org/2000/svg" xmlns:xlink="http://www.w3.org/1999/xlink">
    <!-- Generator: Sketch 45.2 (43514) - http://www.bohemiancoding.com/sketch -->
    <title>illu</title>
    <desc>Created with Sketch.</desc>
    <defs></defs>
    <g id="Page-1" stroke="none" stroke-width="1" fill="none" fill-rule="evenodd" opacity="0.100000001">
        <g id="UI_pricing" transform="translate(-506.000000, -360.000000)">
            <g id="Group-2" transform="translate(504.000000, 359.000000)">
                <g id="illu" transform="translate(2.000000, 1.000000)">
                    <g transform="translate(-83.000000, -41.000000)">
                        <g id="Spaceship-Launching-Pad" transform="translate(0.000000, 28.000000)" stroke="#3F9F56" stroke-width="7">
                            <path d="M161,203 L119,203 C117.8835,203 117.2465,201.726 117.915,200.8335 L122.5,182 L157.5,182 L162.085,200.8335 C162.7535,201.726 162.1165,203 161,203 L161,203 Z" id="Stroke-4970"></path>
                            <path d="M122.5,52.5 L157.5,52.5" id="Stroke-4972"></path>
                            <path d="M87.5,181.8635 L87.5,167.8635" id="Stroke-4978" stroke-linecap="round"></path>
                            <path d="M105,153.8635 L105,62.8635 C105,51.947 100.6635,41.475 92.9425,33.754 C89.936,30.751 85.064,30.751 82.0575,33.754 C74.3365,41.475 70,51.947 70,62.8635 L70,153.8635 L63,171.3635 L63,182 L112,182 L112,171.3635 L105,153.8635 L105,153.8635 Z" id="Stroke-4980"></path>
                            <polygon id="Stroke-4982" points="112 182 175 182 175 175 105 105 105 153.8635 112 171.3635"></polygon>
                            <path d="M157.5,157.5 L157.5,55.4085 C157.5,42.7455 150.857,31.0135 140,24.5 C129.143,31.0135 122.5,42.7455 122.5,55.4085 L122.5,122.5 L157.5,157.5 L157.5,157.5 Z" id="Stroke-4986"></path>
                            <path d="M112,171.3635 L105,153.8635 L105,105 L122.5,122.5 L122.5,61.817 C122.5,37.051 109.7915,14.063 88.921,0.875 C88.0635,0.3325 86.9365,0.3325 86.079,0.875 C65.2085,14.063 52.5,37.051 52.5,61.817 L52.5,122.5 L70,105 L70,153.8635 L63,171.3635 L63,182 L112,182 L112,171.3635 L112,171.3635 Z" id="Stroke-4990"></path>
                            <polygon id="Stroke-4992" points="178.5 24.5 203 24.5 203 203 178.5 203"></polygon>
                            <path d="M203,52.5 L178.5,77" id="Stroke-4994"></path>
                            <path d="M178.5,77 L203,101.5" id="Stroke-4996"></path>
                            <path d="M203,101.5 L178.5,126" id="Stroke-4998"></path>
                            <path d="M178.5,126 L203,150.5" id="Stroke-5000"></path>
                            <path d="M203,147 L178.5,171.5" id="Stroke-5002"></path>
                            <path d="M178.5,171.5 L203,196" id="Stroke-5004"></path>
                            <path d="M203,52.5 L178.5,28" id="Stroke-5006"></path>
                            <path d="M157.5,59.5 L178.5,59.5" id="Stroke-5008"></path>
                            <path d="M157.5,126 L178.5,126" id="Stroke-5010"></path>
                            <polygon id="Stroke-5012" points="182 3.5 199.5 3.5 199.5 24.5 182 24.5"></polygon>
                            <polygon id="Stroke-5016" points="112 171.3635 112 182 175 182 175 175 168 168 110.656 168"></polygon>
                            <path d="M94.5,66.5 L80.5,66.5 L80.5,59.5 C80.5,55.636 83.6325,52.5 87.5,52.5 C91.3675,52.5 94.5,55.636 94.5,59.5 L94.5,66.5 L94.5,66.5 Z" id="Stroke-5018" stroke-linecap="round"></path>
                            <path d="M80.5,147 L80.5,157.5" id="Stroke-5020" stroke-linecap="round"></path>
                            <path d="M94.5,147 L94.5,157.5" id="Stroke-5022" stroke-linecap="round"></path>
                            <polygon id="Stroke-5024" points="105 192.5 70 192.5 73.5 182 101.5 182"></polygon>
                        </g>
                        <path d="M234.5,101.5 C234.5,103.432 232.932,105 231,105 C229.068,105 227.5,103.432 227.5,101.5 C227.5,99.568 229.068,98 231,98 C232.932,98 234.5,99.568 234.5,101.5" id="Fill-1078" fill="#939EB7"></path>
                        <path d="M91,182 C91,183.932 89.432,185.5 87.5,185.5 C85.568,185.5 84,183.932 84,182 C84,180.068 85.568,178.5 87.5,178.5 C89.432,178.5 91,180.068 91,182" id="Fill-1079" fill="#939EB7"></path>
                    </g>
                </g>
            </g>
        </g>
    </g>
</svg>