<?xml version="1.0" encoding="UTF-8" standalone="no"?>
<svg width="162px" height="185px" viewBox="0 0 162 185" version="1.1" xmlns="http://www.w3.org/2000/svg" xmlns:xlink="http://www.w3.org/1999/xlink">
    <!-- Generator: Sketch 45.2 (43514) - http://www.bohemiancoding.com/sketch -->
    <title>Saturn</title>
    <desc>Created with Sketch.</desc>
    <defs></defs>
    <g id="Page-1" stroke="none" stroke-width="1" fill="none" fill-rule="evenodd" opacity="0.150000006">
        <g id="UI_pricing" transform="translate(-935.000000, -360.000000)">
            <g id="Group-3" transform="translate(934.000000, 359.000000)">
                <g id="Saturn" transform="translate(1.000000, 1.000000)">
                    <g transform="translate(-40.000000, -11.000000)">
                        <path d="M174.319298,188.0935 C174.821053,189.9625 173.708772,191.8805 171.838596,192.381 C169.964912,192.8815 168.042105,191.772 167.540351,189.9065 C167.038596,188.0375 168.150877,186.1195 170.021053,185.619 C171.894737,185.1185 173.817544,186.228 174.319298,188.0935" id="Fill-1094" fill="#FFFFFF"></path>
                        <path d="M191.863158,118.0935 C192.364912,119.9625 191.252632,121.8805 189.382456,122.381 C187.508772,122.8815 185.585965,121.772 185.084211,119.9065 C184.582456,118.0375 185.694737,116.1195 187.564912,115.619 C189.438596,115.1185 191.361404,116.228 191.863158,118.0935" id="Fill-1095" fill="#FFFFFF"></path>
                        <path d="M83.0912281,83.0935 C83.5929825,84.9625 82.4807018,86.8805 80.6105263,87.381 C78.7368421,87.8815 76.8140351,86.772 76.3122807,84.9065 C75.8105263,83.0375 76.922807,81.1195 78.7929825,80.619 C80.6666667,80.1185 82.5894737,81.228 83.0912281,83.0935" id="Fill-1097" fill="#FFFFFF"></path>
                        <path d="M107.652632,191.5935 C108.154386,193.459 107.042105,195.3805 105.17193,195.881 C103.301754,196.3815 101.375439,195.272 100.873684,193.4065 C100.37193,191.5375 101.484211,189.6195 103.354386,189.119 C105.22807,188.6185 107.150877,189.7245 107.652632,191.5935" id="Fill-1098" fill="#FFFFFF"></path>
                        <path d="M135.192982,36.1725 C158.329825,18.8545 176.14386,10.3775 181.4,15.6205 C190.164912,24.3635 160.729825,67.9 115.65614,112.861 C70.5789474,157.8255 26.9333333,187.1905 18.1684211,178.444 C12.9087719,173.201 21.4105263,155.4315 38.7719298,132.3525 L38.7614035,132.3105 C35.7157895,127.0395 33.3368421,121.3345 31.7368421,115.3145 L31.6912281,115.3635 C26.4280702,122.003 21.6385965,128.4325 17.5614035,134.4665 C5.15438596,152.8135 -7.27719298,175.679 6.83157895,189.7525 C20.9403509,203.826 43.8631579,191.4255 62.2596491,179.053 C81.4982456,166.11 104.484211,146.6185 126.989474,124.1695 C149.494737,101.7205 169.035088,78.792 182.010526,59.6015 C194.414035,41.251 205.498246,21.6405 191.982456,7 C178.385965,-7.728 153.354386,4.221 137.312281,15.015 C131.263158,19.082 117.915789,29.0185 118.161404,29.1095 C118.407018,29.204 118.175439,29.0955 118.175439,29.0955 C124.066667,30.674 129.792982,33.0295 135.189474,36.1585 L135.192982,36.1725 Z" id="Path" stroke="#FFFFFF" stroke-width="7" stroke-linecap="round" stroke-linejoin="round"></path>
                        <path d="M160.768421,61.754 C157.768421,56.5845 154.094737,51.702 149.663158,47.2815 C122.115789,19.803 77.4561404,19.803 49.9087719,47.2815 C22.3614035,74.76 22.3614035,119.308 49.9087719,146.7865 C54.3403509,151.207 59.2385965,154.8715 64.4140351,157.864" id="Path" stroke="#FFFFFF" stroke-width="7" stroke-linecap="round" stroke-linejoin="round"></path>
                        <path d="M81.4070175,164.955 C104.97193,171.2725 131.168421,165.2315 149.663158,146.7865 C168.154386,128.338 174.210526,102.207 167.877193,78.701" id="Path" stroke="#FFFFFF" stroke-width="7" stroke-linecap="round" stroke-linejoin="round"></path>
                    </g>
                </g>
            </g>
        </g>
    </g>
</svg>