<?xml version="1.0" standalone="no"?>
<!DOCTYPE svg PUBLIC "-//W3C//DTD SVG 20010904//EN"
 "http://www.w3.org/TR/2001/REC-SVG-20010904/DTD/svg10.dtd">
<svg version="1.0" xmlns="http://www.w3.org/2000/svg"
 width="505.000000pt" height="505.000000pt" viewBox="0 0 505.000000 505.000000"
 preserveAspectRatio="xMidYMid meet">
<metadata>
Created by potrace 1.14, written by Peter Selinger 2001-2017
</metadata>
<g transform="translate(0.000000,505.000000) scale(0.100000,-0.100000)"
fill="#7b7b7b" stroke="none">
<path d="M3515 4291 c-3 -6 -22 -11 -41 -11 -19 0 -34 -4 -34 -10 0 -5 -9 -10
-20 -10 -11 0 -20 -4 -20 -10 0 -5 -7 -10 -17 -10 -33 0 -193 -146 -193 -176
0 -8 -3 -14 -7 -14 -9 0 -33 -49 -33 -67 0 -7 -4 -13 -10 -13 -5 0 -10 -13
-10 -28 0 -37 -17 -52 -57 -52 -27 0 -34 -4 -39 -27 -4 -16 -12 -31 -18 -35
-6 -4 7 -8 29 -8 58 0 67 -9 63 -66 l-3 -49 -41 -3 c-35 -3 -43 -8 -57 -37
l-17 -35 67 0 c69 0 92 -13 93 -52 0 -10 5 -18 10 -18 6 0 10 -9 10 -20 0 -11
5 -20 10 -20 6 0 10 -7 10 -16 0 -9 8 -24 18 -33 10 -9 25 -26 33 -37 15 -23
109 -100 147 -121 12 -7 29 -13 37 -13 8 0 15 -4 15 -9 0 -4 27 -14 60 -21 71
-15 232 -7 264 13 12 7 40 19 63 27 24 7 50 21 59 32 10 10 21 18 27 18 18 0
97 87 97 108 0 13 -11 25 -30 34 -16 7 -30 16 -30 20 0 5 -7 8 -16 8 -8 0 -22
7 -31 15 -12 12 -18 13 -29 4 -8 -6 -14 -16 -14 -21 0 -24 -102 -98 -134 -98
-8 0 -16 -6 -19 -12 -5 -17 -179 -16 -185 1 -2 6 -10 11 -18 11 -19 0 -81 36
-109 64 -35 35 -65 87 -65 113 0 22 3 22 137 25 l137 3 13 33 13 32 -169 0
c-186 0 -181 -2 -181 64 0 54 8 56 202 56 l178 0 0 25 c0 14 5 25 10 25 6 0
10 5 10 10 0 6 -68 10 -184 10 -211 0 -211 0 -168 78 49 89 78 115 194 173 23
12 154 12 176 0 9 -5 34 -17 55 -26 45 -20 107 -77 107 -99 0 -9 7 -16 15 -16
8 0 15 4 15 8 0 5 10 14 23 21 83 43 97 59 72 84 -8 9 -15 20 -15 25 0 6 -15
22 -32 36 -18 14 -43 35 -55 46 -12 11 -29 20 -38 20 -8 0 -15 5 -15 10 0 6
-11 10 -25 10 -14 0 -25 4 -25 9 0 19 -253 40 -265 22z"/>
</g>
<g transform="translate(0.000000,505.000000) scale(0.100000,-0.100000)"
fill="#000000" stroke="none">
<path d="M722 3890 c-6 -22 -12 -55 -12 -74 0 -19 -4 -38 -10 -41 -5 -3 -10
-28 -10 -55 0 -27 -4 -52 -10 -55 -5 -3 -10 -28 -10 -56 0 -27 -4 -49 -10 -49
-5 0 -10 -13 -10 -30 0 -16 -4 -49 -10 -72 -5 -24 -14 -70 -20 -103 -6 -33
-18 -85 -25 -115 -8 -30 -17 -73 -20 -95 -4 -22 -11 -62 -16 -90 -6 -27 -12
-68 -16 -90 -3 -22 -9 -44 -14 -50 -5 -5 -9 -30 -9 -55 0 -25 -4 -50 -9 -55
-5 -6 -12 -30 -15 -55 -14 -116 -18 -136 -26 -155 -5 -11 -11 -38 -14 -60 -8
-58 -29 -176 -55 -295 -5 -25 -14 -74 -21 -109 -6 -36 -13 -68 -15 -72 -10
-16 37 -19 266 -19 268 0 241 -6 309 75 14 17 41 41 60 55 19 13 37 27 40 30
5 5 36 23 70 40 11 6 29 15 40 20 11 6 31 10 44 10 14 0 28 5 31 10 8 13 275
13 275 0 0 -5 13 -10 29 -10 28 0 113 -37 119 -52 2 -5 10 -8 17 -8 13 0 94
-76 125 -117 25 -33 40 -62 40 -78 0 -8 5 -15 10 -15 6 0 10 -9 10 -20 0 -12
7 -35 16 -52 12 -23 16 -61 16 -158 0 -97 -4 -135 -16 -158 -9 -17 -16 -40
-16 -52 0 -11 -4 -20 -10 -20 -5 0 -10 -9 -10 -20 0 -11 -4 -20 -10 -20 -5 0
-10 -7 -10 -15 0 -9 -10 -26 -22 -39 -13 -12 -37 -38 -53 -57 -33 -37 -88 -79
-105 -79 -5 0 -10 -4 -10 -10 0 -5 -9 -10 -19 -10 -11 0 -23 -5 -26 -10 -3 -6
-17 -10 -31 -10 -13 0 -24 -4 -24 -9 0 -31 -361 -32 -395 0 -5 5 -22 9 -37 9
-15 0 -28 5 -28 10 0 6 -8 10 -19 10 -22 0 -137 62 -211 115 -56 41 -190 172
-190 187 0 26 -40 -3 -120 -84 -187 -194 -230 -242 -230 -260 0 -10 4 -18 8
-18 5 0 14 -11 20 -25 14 -31 24 -43 80 -101 23 -25 42 -47 42 -51 0 -7 31
-35 80 -72 19 -14 44 -34 54 -44 11 -9 26 -17 33 -17 7 0 13 -4 13 -10 0 -5 7
-10 15 -10 8 0 15 -4 15 -10 0 -5 9 -10 19 -10 11 0 21 -3 23 -7 3 -8 78 -46
128 -65 14 -6 39 -16 55 -23 49 -20 96 -32 170 -45 39 -6 93 -16 120 -21 56
-12 277 -6 375 9 156 25 213 43 353 113 22 10 45 19 53 19 8 0 14 5 14 10 0 6
9 10 20 10 11 0 20 4 20 8 0 4 12 15 28 24 15 9 41 28 57 42 17 14 34 26 39
26 13 0 151 144 172 179 10 17 22 31 26 31 4 0 8 9 8 20 0 11 5 20 10 20 6 0
10 7 10 15 0 8 3 15 8 15 13 0 81 167 103 255 25 95 34 268 22 385 -14 143
-27 208 -41 222 -7 7 -12 19 -12 28 0 23 -107 227 -133 255 -7 7 -26 30 -44
51 -54 67 -70 84 -79 84 -5 0 -16 9 -24 20 -8 11 -20 20 -26 20 -6 0 -24 12
-40 28 -57 54 -294 162 -356 162 -15 0 -29 4 -32 8 -5 9 -156 25 -236 25 -42
0 -165 -14 -252 -29 -21 -3 -38 -10 -38 -14 0 -4 -10 -10 -23 -14 -13 -3 -40
-17 -61 -31 -20 -14 -41 -25 -45 -25 -10 0 -3 87 9 115 5 11 12 43 15 70 3 28
8 73 11 100 3 28 10 54 15 60 5 5 9 30 9 56 0 26 4 50 9 53 4 3 11 27 14 53
10 85 25 172 32 183 4 7 192 10 571 10 l564 0 0 270 0 270 -778 0 -777 0 -13
-40z"/>
<path d="M3385 2146 c-110 -33 -183 -94 -236 -198 -26 -51 -29 -68 -29 -147 0
-57 5 -100 14 -118 8 -15 20 -41 27 -56 21 -46 91 -111 144 -136 17 -7 38 -18
48 -23 29 -15 201 -12 236 3 17 8 31 17 31 21 0 5 6 8 13 8 8 0 24 11 37 25
12 13 27 22 31 19 12 -7 11 -51 -1 -59 -5 -3 -10 -17 -10 -31 0 -61 -87 -184
-131 -184 -11 0 -19 -4 -19 -10 0 -12 -117 -13 -124 -1 -3 4 -19 11 -35 14
-16 4 -48 24 -72 47 -23 22 -45 40 -48 40 -12 0 -90 -96 -91 -111 0 -28 110
-119 145 -119 8 0 15 -4 15 -8 0 -12 93 -32 151 -32 54 0 139 20 139 32 0 4 7
8 16 8 17 0 104 57 104 68 0 4 10 18 23 32 31 35 79 137 92 195 8 36 28 220
27 255 0 60 -16 181 -23 186 -5 3 -9 16 -9 29 0 13 -4 27 -10 30 -5 3 -10 14
-10 24 0 9 -9 27 -20 39 -11 12 -20 26 -20 31 0 31 -106 103 -191 130 -44 14
-161 12 -214 -3z m187 -158 c12 -7 31 -21 42 -30 11 -10 23 -18 26 -18 3 0 17
-18 29 -41 17 -29 23 -56 23 -98 0 -74 -21 -115 -84 -167 -41 -33 -128 -43
-181 -20 -38 16 -97 68 -97 84 0 7 -4 12 -9 12 -8 0 -21 56 -21 90 0 34 13 90
21 90 5 0 9 5 9 11 0 12 55 68 85 86 27 16 130 16 157 1z"/>
<path d="M4265 2148 c-82 -28 -115 -47 -167 -99 -32 -31 -58 -64 -58 -73 0 -9
-4 -16 -10 -16 -5 0 -10 -9 -10 -19 0 -11 -5 -21 -11 -23 -6 -2 -10 -44 -11
-108 0 -98 2 -109 32 -166 32 -64 107 -144 134 -144 9 0 16 -4 16 -10 0 -5 11
-10 24 -10 13 0 26 -5 28 -11 5 -15 206 -15 221 0 6 6 19 11 29 11 10 0 18 5
18 10 0 6 6 10 14 10 7 0 22 11 32 25 36 49 39 34 18 -87 -3 -21 -10 -38 -15
-38 -5 0 -9 -7 -9 -15 0 -23 -51 -95 -66 -95 -8 0 -14 -4 -14 -10 0 -5 -9 -10
-19 -10 -11 0 -23 -4 -26 -10 -8 -13 -112 -13 -120 0 -3 6 -15 10 -26 10 -25
0 -55 18 -96 58 -32 31 -53 40 -53 24 0 -4 -18 -26 -40 -50 -22 -23 -40 -47
-40 -53 0 -15 90 -99 107 -99 7 0 13 -4 13 -10 0 -5 9 -10 19 -10 11 0 22 -4
25 -9 10 -15 122 -33 177 -28 76 8 119 18 119 28 0 5 9 9 20 9 11 0 20 4 20 8
0 5 12 15 28 23 35 18 55 41 95 109 56 97 75 159 87 300 14 150 -8 345 -41
365 -5 4 -9 15 -9 26 0 10 -4 19 -9 19 -5 0 -12 9 -16 20 -8 26 -72 91 -112
113 -79 44 -222 60 -298 35z m170 -158 c3 -5 13 -10 21 -10 16 0 72 -54 93
-90 21 -37 18 -162 -5 -190 -64 -79 -116 -105 -195 -98 -57 6 -103 35 -143 90
-25 35 -29 49 -28 108 0 38 6 77 14 90 17 30 57 70 68 70 6 0 10 3 10 8 0 25
151 45 165 22z"/>
<path d="M2797 1513 c-4 -3 -7 -44 -7 -91 l0 -84 31 -11 c34 -13 34 -12 13
-139 l-6 -38 38 0 c39 0 39 0 63 68 19 52 25 93 28 185 l4 117 -79 0 c-43 0
-82 -3 -85 -7z"/>
</g>
</svg>
