<?xml version="1.0" encoding="UTF-8" standalone="no"?>
<svg width="362px" height="550px" viewBox="0 0 362 550" version="1.1" xmlns="http://www.w3.org/2000/svg" xmlns:xlink="http://www.w3.org/1999/xlink">
    <!-- Generator: Sketch 46.2 (44496) - http://www.bohemiancoding.com/sketch -->
    <title>Spaceship</title>
    <desc>Created with Sketch.</desc>
    <defs>
        <path d="M5,0 L361.537629,0 L361.537629,549.400355 L5,549.400355 L5,549.400355 C2.23857625,549.400355 3.38176876e-16,547.161779 0,544.400355 L0,5 L0,5 C-3.38176876e-16,2.23857625 2.23857625,5.07265313e-16 5,0 Z" id="path-1"></path>
    </defs>
    <g id="Page-1" stroke="none" stroke-width="1" fill="none" fill-rule="evenodd">
        <g id="Pricing-V1" transform="translate(-137.000000, -361.000000)">
            <g id="Group-2" transform="translate(136.000000, 359.000000)">
                <g id="Spaceship" transform="translate(1.000000, 2.008000)">
                    <mask id="mask-2" fill="white">
                        <use xlink:href="#path-1"></use>
                    </mask>
                    <use id="Mask" fill="#FFFFFF" xlink:href="#path-1"></use>
                    <g opacity="0.200000003" mask="url(#mask-2)">
                        <g transform="translate(-24.000000, 10.040000)">
                            <polygon id="Path" stroke="#939EB7" stroke-width="6" fill="none" stroke-linecap="round" stroke-linejoin="round" points="141 27.108 132 18.072 141 9.036 150 18.072"></polygon>
                            <path d="M141,9.036 L141,3.012 L141,9.036 Z" id="Path" stroke="#939EB7" stroke-width="6" fill="none" stroke-linecap="round" stroke-linejoin="round"></path>
                            <path d="M150,18.072 L156,18.072 L150,18.072 Z" id="Path" stroke="#939EB7" stroke-width="6" fill="none" stroke-linecap="round" stroke-linejoin="round"></path>
                            <path d="M141,27.108 L141,33.132 L141,27.108 Z" id="Path" stroke="#939EB7" stroke-width="6" fill="none" stroke-linecap="round" stroke-linejoin="round"></path>
                            <path d="M132,18.072 L126,18.072 L132,18.072 Z" id="Path" stroke="#939EB7" stroke-width="6" fill="none" stroke-linecap="round" stroke-linejoin="round"></path>
                            <path d="M129,33.132 C129,34.794624 127.656,36.144 126,36.144 C124.344,36.144 123,34.794624 123,33.132 C123,31.469376 124.344,30.12 126,30.12 C127.656,30.12 129,31.469376 129,33.132" id="Fill-1074" stroke="none" fill="#939EB7" fill-rule="evenodd"></path>
                            <path d="M42,48.192 C42,49.854624 40.656,51.204 39,51.204 C37.344,51.204 36,49.854624 36,48.192 C36,46.529376 37.344,45.18 39,45.18 C40.656,45.18 42,46.529376 42,48.192" id="Fill-1077" stroke="none" fill="#939EB7" fill-rule="evenodd"></path>
                            <path d="M153,90.36 C153,92.022624 151.656,93.372 150,93.372 C148.344,93.372 147,92.022624 147,90.36 C147,88.697376 148.344,87.348 150,87.348 C151.656,87.348 153,88.697376 153,90.36" id="Fill-1078" stroke="none" fill="#939EB7" fill-rule="evenodd"></path>
                            <path d="M30,159.636 C30,161.298624 28.656,162.648 27,162.648 C25.344,162.648 24,161.298624 24,159.636 C24,157.973376 25.344,156.624 27,156.624 C28.656,156.624 30,157.973376 30,159.636" id="Fill-1079" stroke="none" fill="#939EB7" fill-rule="evenodd"></path>
                            <path d="M147,162.648 C147,164.310624 145.656,165.66 144,165.66 C142.344,165.66 141,164.310624 141,162.648 C141,160.985376 142.344,159.636 144,159.636 C145.656,159.636 147,160.985376 147,162.648" id="Fill-1080" stroke="none" fill="#939EB7" fill-rule="evenodd"></path>
                            <path d="M116.862,91.468416 C112.329,88.299792 110.484,83.263728 108,78.312 C103.317,68.977812 98.409,55.785252 96.693,45.439032 L92.148,19.056924 C90.855,11.252832 87.573,7.72578 82.665,1.614432 C80.991,-0.463848 77.817,-0.463848 76.143,1.614432 C71.235,7.72578 67.956,11.252832 66.66,19.056924 L62.115,45.439032 C60.399,55.785252 55.683,68.977812 51,78.312 C48.516,83.263728 46.479,88.299792 41.946,91.468416 C30.675,99.347808 14.253,111.453036 12,125.02812 L12,133.9587 C12,134.780976 12.627,135.461688 13.443,135.527952 L50.733,138.548988 C52.482,138.73272 53.808,140.211612 53.808,141.976644 L53.808,146.199468 C53.808,146.967528 54.429,147.588 55.191,147.588 L61.218,147.588 C61.791,147.588 62.304,147.943416 62.511,148.479552 L65.277,155.732448 C65.481,156.268584 65.994,156.624 66.567,156.624 L92.241,156.624 C92.814,156.624 93.327,156.268584 93.531,155.732448 L96.297,148.479552 C96.504,147.943416 97.017,147.588 97.59,147.588 L103.617,147.588 C104.379,147.588 105,146.967528 105,146.199468 L105,141.979656 C105,140.214624 106.329,138.73272 108.078,138.552 L145.557,135.527952 C146.373,135.461688 147,134.780976 147,133.9587 L147,125.02812 C144.747,111.453036 128.133,99.347808 116.862,91.468416 L116.862,91.468416 Z" id="Path" stroke="#939EB7" stroke-width="6" fill="none" stroke-linecap="round" stroke-linejoin="round"></path>
                            <path d="M65.808,165.66 L65.808,168.672 L65.808,165.66 Z" id="Path" stroke="#939EB7" stroke-width="6" fill="none" stroke-linecap="round" stroke-linejoin="round"></path>
                            <path d="M74.808,165.66 L74.808,171.684 L74.808,165.66 Z" id="Path" stroke="#939EB7" stroke-width="6" fill="none" stroke-linecap="round" stroke-linejoin="round"></path>
                            <path d="M83.808,165.66 L83.808,171.684 L83.808,165.66 Z" id="Path" stroke="#939EB7" stroke-width="6" fill="none" stroke-linecap="round" stroke-linejoin="round"></path>
                            <path d="M92.808,165.66 L92.808,168.672 L92.808,165.66 Z" id="Path" stroke="#939EB7" stroke-width="6" fill="none" stroke-linecap="round" stroke-linejoin="round"></path>
                            <path d="M94.596,33.261516 C91.023,27.686304 85.509,24.096 79.308,24.096 C73.266,24.096 67.866,27.493536 64.287,32.827788" id="Path" stroke="#939EB7" stroke-width="6" fill="none" stroke-linecap="round" stroke-linejoin="round"></path>
                            <path d="M66,123.492 L93,123.492 L66,123.492 Z" id="Path" stroke="#939EB7" stroke-width="6" fill="none" stroke-linecap="round" stroke-linejoin="round"></path>
                            <path d="M66,108.432 L93,108.432 L66,108.432 Z" id="Path" stroke="#939EB7" stroke-width="6" fill="none" stroke-linecap="round" stroke-linejoin="round"></path>
                            <path d="M66,93.372 L93,93.372 L66,93.372 Z" id="Path" stroke="#939EB7" stroke-width="6" fill="none" stroke-linecap="round" stroke-linejoin="round"></path>
                            <path d="M54,117.468 L54,144.576 L54,117.468 Z" id="Path" stroke="#939EB7" stroke-width="6" fill="none" stroke-linecap="round" stroke-linejoin="round"></path>
                            <path d="M105,117.468 L105,144.576 L105,117.468 Z" id="Path" stroke="#939EB7" stroke-width="6" fill="none" stroke-linecap="round" stroke-linejoin="round"></path>
                            <path d="M90,135.54 L90,141.564 L90,135.54 Z" id="Path" stroke="#939EB7" stroke-width="6" fill="none" stroke-linecap="round" stroke-linejoin="round"></path>
                            <path d="M69,135.54 L69,141.564 L69,135.54 Z" id="Path" stroke="#939EB7" stroke-width="6" fill="none" stroke-linecap="round" stroke-linejoin="round"></path>
                            <path d="M69,135.54 L90,135.54 L69,135.54 Z" id="Path" stroke="#939EB7" stroke-width="6" fill="none" stroke-linecap="round" stroke-linejoin="round"></path>
                            <path d="M12,126.504 L54,126.504 L12,126.504 Z" id="Path" stroke="#939EB7" stroke-width="6" fill="none" stroke-linecap="round" stroke-linejoin="round"></path>
                            <path d="M105,126.504 L147,126.504 L105,126.504 Z" id="Path" stroke="#939EB7" stroke-width="6" fill="none" stroke-linecap="round" stroke-linejoin="round"></path>
                        </g>
                    </g>
                </g>
            </g>
        </g>
    </g>
</svg>