<?xml version="1.0" standalone="no"?>
<!DOCTYPE svg PUBLIC "-//W3C//DTD SVG 20010904//EN"
 "http://www.w3.org/TR/2001/REC-SVG-20010904/DTD/svg10.dtd">
<svg version="1.0" xmlns="http://www.w3.org/2000/svg"
 width="4167.000000pt" height="2172.000000pt" viewBox="0 0 4167.000000 2172.000000"
 preserveAspectRatio="xMidYMid meet">
<metadata>
Created by potrace 1.14, written by Peter Selinger 2001-2017
</metadata>
<g transform="translate(0.000000,2172.000000) scale(0.100000,-0.100000)"
fill="#373B60" stroke="none">
<path d="M10145 16903 c-65 -9 -160 -34 -224 -60 -64 -25 -3061 -1741 -3091
-1769 -24 -23 -2 -34 169 -85 631 -190 1074 -471 1274 -808 103 -174 147 -336
148 -551 3 -379 -124 -718 -536 -1435 -293 -509 -359 -641 -427 -843 -28 -86
-32 -110 -32 -212 -1 -110 0 -118 31 -180 128 -258 516 -502 1138 -716 201
-70 549 -167 775 -217 276 -62 248 -62 285 3 29 50 46 125 196 877 107 538
160 826 154 832 -17 17 -230 32 -520 38 -301 6 -415 -2 -510 -38 -131 -49
-453 -274 -744 -520 l-135 -114 -78 -220 c-43 -120 -83 -224 -88 -229 -7 -7
-13 -7 -20 0 -14 14 -110 516 -110 575 0 31 7 57 23 80 49 74 616 562 850 732
261 191 354 222 998 337 368 66 553 111 654 160 108 51 241 148 341 245 117
115 123 135 95 343 -25 188 -26 221 -6 270 45 106 245 229 521 321 149 50 284
66 479 58 264 -12 378 -50 497 -166 59 -59 67 -72 74 -116 4 -29 2 -89 -6
-145 -26 -192 -25 -224 5 -275 21 -37 51 -62 153 -130 138 -91 171 -128 179
-199 15 -125 -87 -387 -186 -480 -105 -97 -392 -208 -546 -210 -61 -1 -81 4
-155 38 -105 47 -133 53 -164 33 -22 -15 -25 -25 -30 -114 -4 -54 -9 -119 -12
-145 -4 -45 -3 -48 26 -63 64 -33 270 -85 338 -85 206 0 693 211 1332 576 145
83 145 83 308 253 90 94 169 171 177 171 40 0 36 -25 -50 -288 -58 -177 -94
-271 -111 -291 -59 -71 -953 -688 -1274 -879 -222 -133 -386 -214 -448 -220
-55 -5 -142 8 -270 39 -46 11 -86 18 -89 15 -3 -2 -12 -36 -19 -73 -20 -92
-92 -267 -147 -356 -56 -90 -226 -294 -447 -538 -92 -102 -175 -200 -184 -217
-30 -59 -58 -202 -59 -303 0 -120 19 -164 102 -241 71 -66 154 -110 336 -178
77 -29 217 -88 310 -132 482 -226 597 -294 663 -392 29 -44 32 -55 32 -123 0
-95 -35 -204 -121 -375 -102 -204 -313 -539 -471 -747 -26 -35 -48 -71 -48
-80 0 -9 74 -101 165 -204 91 -104 165 -194 165 -202 0 -17 -27 -45 -43 -45
-23 0 -841 270 -864 285 -34 23 -56 72 -50 114 3 20 76 173 162 341 323 628
337 658 324 681 -11 21 -14 21 -193 15 -325 -13 -620 17 -767 78 -35 15 -82
34 -105 43 l-40 16 -145 -148 c-227 -232 -382 -346 -519 -381 -207 -53 -658
76 -1300 373 -465 216 -418 197 -443 180 -12 -8 -112 -94 -222 -191 -197 -174
-235 -198 -243 -155 -2 9 70 216 159 460 89 244 166 457 171 472 8 22 15 27
32 23 11 -3 331 -134 709 -291 379 -157 697 -285 708 -285 11 0 20 9 23 23 50
239 154 567 281 889 41 103 75 194 75 202 0 17 -1 17 -135 46 -1077 234 -1867
610 -2138 1017 -110 166 -142 279 -134 472 11 275 99 486 472 1136 349 608
458 849 511 1121 22 115 20 291 -5 387 -100 388 -539 684 -1331 897 -80 21
-198 50 -263 65 l-119 26 -491 -282 c-592 -339 -583 -334 -676 -423 -157 -152
-250 -334 -280 -550 -15 -106 -15 -5206 -1 -5325 18 -141 76 -298 153 -411 42
-61 140 -163 207 -215 63 -48 4518 -2611 4627 -2662 233 -108 540 -104 769 9
107 54 4468 2563 4560 2624 180 120 308 296 376 516 l23 73 3 2690 c2 2436 1
2698 -14 2770 -20 101 -60 206 -114 297 -46 77 -166 209 -239 262 -25 19
-1065 620 -2311 1337 -1554 894 -2292 1313 -2351 1336 -137 52 -312 74 -444
56z"/>
<path d="M18145 13413 c-48 -25 -83 -63 -100 -107 -14 -37 -15 -300 -13 -2443
l3 -2401 30 -44 c18 -25 49 -52 75 -65 l44 -23 1613 0 c1434 0 1618 2 1651 15
49 21 81 52 103 100 17 36 19 70 19 338 0 246 -3 304 -15 335 -20 47 -50 79
-97 103 -36 18 -77 19 -1198 19 -1250 0 -1202 -2 -1230 49 -6 13 -10 208 -10
560 l0 540 24 28 24 28 1069 5 1070 5 40 28 c22 15 50 46 64 70 24 41 24 46
27 332 2 200 0 302 -8 330 -16 55 -53 101 -100 125 -38 20 -61 20 -1078 20
-715 0 -1049 3 -1070 11 -64 22 -62 6 -62 573 l0 515 24 28 24 28 1185 5 1185
5 43 30 c23 17 53 50 66 74 23 43 23 49 23 345 0 293 -1 303 -22 346 -13 24
-40 58 -61 74 l-39 31 -1636 2 c-1477 2 -1640 1 -1667 -14z"/>
<path d="M24424 13411 c-55 -25 -107 -90 -142 -175 -16 -39 -431 -1108 -922
-2374 -855 -2209 -892 -2306 -888 -2357 5 -59 34 -107 90 -147 33 -23 36 -23
367 -26 399 -3 414 -1 484 79 40 46 60 90 177 393 190 490 188 484 221 501 24
13 180 15 1131 15 1052 0 1104 -1 1133 -18 27 -17 46 -60 184 -418 85 -219
167 -418 183 -441 36 -53 81 -88 133 -102 63 -17 677 -15 718 3 39 17 92 71
106 109 28 73 46 23 -900 2463 -500 1292 -921 2367 -934 2389 -31 52 -71 90
-117 109 -32 14 -105 16 -510 16 -438 0 -476 -2 -514 -19z m551 -1285 c18 -8
40 -27 48 -43 42 -84 671 -1733 671 -1761 0 -22 -9 -41 -27 -60 l-27 -27 -668
-3 c-367 -2 -682 0 -701 3 -47 9 -81 46 -81 89 0 23 122 351 331 893 182 472
335 866 341 876 5 10 24 25 41 32 40 18 32 17 72 1z"/>
<path d="M30065 13424 c-16 -2 -82 -11 -145 -20 -63 -9 -173 -31 -245 -49
-682 -175 -1131 -581 -1250 -1130 -37 -171 -28 -471 20 -662 88 -348 303 -602
655 -778 267 -134 595 -229 1379 -401 563 -123 750 -189 881 -311 80 -74 111
-145 111 -256 1 -169 -57 -276 -205 -381 -210 -150 -491 -216 -912 -216 -197
0 -323 12 -461 45 -297 71 -459 184 -607 424 -73 118 -121 169 -183 191 -52
18 -636 27 -702 10 -62 -16 -109 -54 -133 -107 -17 -39 -18 -53 -9 -127 34
-283 147 -505 370 -726 301 -299 712 -484 1271 -572 129 -20 181 -22 465 -22
396 0 573 21 870 105 343 97 618 246 825 445 168 163 268 317 334 514 48 145
66 257 66 420 0 363 -108 629 -348 862 -275 266 -632 411 -1446 589 -464 100
-708 160 -822 200 -349 121 -466 257 -452 526 7 119 42 197 132 287 106 109
252 180 466 228 95 21 128 23 355 23 221 -1 262 -4 355 -24 140 -30 232 -67
332 -134 117 -78 177 -136 271 -262 136 -182 156 -188 589 -183 271 3 285 4
325 25 23 13 54 39 70 60 25 33 28 43 26 112 -2 144 -75 344 -183 509 -254
386 -766 673 -1370 768 -100 15 -616 29 -695 18z"/>
<path d="M33394 13398 c-27 -19 -56 -50 -68 -73 l-21 -40 0 -2406 0 -2406 30
-48 c20 -32 45 -56 74 -72 l44 -23 1631 2 1631 3 33 23 c17 13 44 40 60 59
l27 36 0 332 0 332 -27 36 c-16 19 -43 46 -60 59 l-33 23 -1180 5 c-649 3
-1188 9 -1198 14 -46 22 -47 33 -47 591 0 571 0 568 55 593 20 9 282 12 1069
12 l1043 0 44 23 c24 13 58 43 74 66 l30 43 3 311 c3 308 2 313 -20 356 -13
25 -40 59 -61 75 l-39 31 -1070 5 -1070 5 -29 33 -29 32 0 505 c0 369 3 511
12 530 26 58 -33 55 1223 55 1020 0 1160 2 1193 15 47 20 79 50 103 98 19 35
20 57 17 356 l-3 319 -31 38 c-16 21 -43 47 -58 58 -27 21 -28 21 -1665 24
l-1638 2 -49 -32z"/>
</g>
</svg>
