<svg xmlns="http://www.w3.org/2000/svg" width="32" height="32" viewBox="0 0 32 32">
    <path fill="#414141" fill-rule="evenodd" d="M21.988 18.925a.41.41 0 0 1-.05.3.396.396 0 0 1-.263.162c-.025.013-.65.1-2.15.138a4.374 4.374 0 0 0-1.675-1.838 5.208 5.208 0 0 0-.812-.362 1.577 1.577 0 0 0-.2-.088c1.237-1.962 1.025-3.425.512-4.262-.35-.588-.725-.975-1.325-1.25.425-.55.825-.875 1.563-.875.825 0 1.55.4 1.962 1.087.538.888.4 1.975-.412 3.238-.175.25-.363.587-.288.825.088.287.575.475 1 .65.25.1.475.187.663.3.762.462 1.3 1.15 1.475 1.975zM14.4 21.15c-2.937 0-4.037-.15-4.075-.163a.37.37 0 0 1-.262-.162.358.358 0 0 1-.05-.3c.175-.825.712-1.513 1.462-1.975.2-.113.425-.2.663-.3.425-.175.912-.363 1-.65.075-.238-.113-.575-.275-.825-.813-1.263-.963-2.35-.425-3.238.412-.687 1.15-1.087 1.962-1.087.825 0 1.563.4 1.975 1.087.538.888.388 1.975-.425 3.238-.162.25-.35.587-.275.825.088.287.575.475 1 .65.238.1.463.187.663.3.75.462 1.287 1.15 1.475 1.975a.362.362 0 0 1-.063.3.37.37 0 0 1-.262.162c-.038.013-1.15.163-4.088.163z"/>
</svg>
