<?xml version="1.0" standalone="no"?>
<!DOCTYPE svg PUBLIC "-//W3C//DTD SVG 20010904//EN"
 "http://www.w3.org/TR/2001/REC-SVG-20010904/DTD/svg10.dtd">
<svg version="1.0" xmlns="http://www.w3.org/2000/svg"
 width="900.000000pt" height="1008.000000pt" viewBox="0 0 900.000000 1008.000000"
 preserveAspectRatio="xMidYMid meet">
<metadata>
Created by potrace 1.10, written by Peter Selinger 2001-2011
</metadata>
<g transform="translate(0.000000,1008.000000) scale(0.100000,-0.100000)"
fill="#373B60" stroke="none">
<path d="M4388 10059 c-11 -12 -31 -19 -53 -19 -61 0 -175 -46 -295 -119 -19
-11 -44 -25 -55 -30 -12 -5 -63 -34 -113 -65 -51 -31 -95 -56 -98 -56 -4 0
-43 -22 -88 -49 -139 -84 -150 -90 -171 -100 -12 -5 -63 -34 -113 -65 -51 -31
-95 -56 -97 -56 -5 0 -196 -111 -225 -130 -8 -6 -22 -13 -30 -17 -8 -4 -59
-33 -113 -65 -55 -32 -101 -58 -103 -58 -2 0 -52 -28 -111 -63 -109 -64 -226
-131 -318 -182 -27 -16 -94 -55 -148 -87 -55 -32 -100 -58 -102 -58 -4 0 -201
-114 -225 -130 -8 -6 -22 -13 -30 -17 -8 -4 -58 -32 -111 -62 -52 -31 -112
-65 -132 -75 -43 -22 -45 -45 -7 -57 183 -54 252 -76 297 -95 17 -8 36 -14 42
-14 6 0 19 -4 29 -10 9 -5 46 -21 82 -36 101 -41 167 -74 275 -138 339 -201
509 -422 566 -735 24 -129 23 -167 0 -311 -25 -149 -63 -285 -110 -395 -10
-22 -26 -60 -36 -85 -46 -108 -191 -380 -314 -588 -33 -57 -61 -105 -61 -108
0 -2 -14 -26 -30 -53 -72 -116 -210 -389 -210 -413 0 -8 -4 -18 -9 -23 -29
-34 -66 -231 -55 -305 27 -193 283 -406 689 -575 50 -20 104 -43 120 -51 30
-13 367 -123 460 -150 74 -22 260 -69 340 -87 39 -9 101 -23 139 -32 114 -27
111 -33 201 425 7 36 18 92 24 125 7 33 18 89 25 125 8 36 22 103 31 150 9 47
23 114 30 150 20 95 43 209 60 298 8 42 20 97 26 121 5 24 6 47 2 51 -19 17
-285 35 -503 35 -308 0 -349 -11 -550 -143 -80 -52 -309 -227 -430 -329 -104
-87 -105 -89 -130 -163 -82 -244 -106 -300 -126 -300 -19 0 -29 28 -49 141
-32 177 -45 244 -54 289 -21 96 -5 119 219 315 63 55 137 120 164 145 28 25
74 63 101 85 28 22 52 42 55 46 3 3 72 56 153 117 211 159 335 213 602 263
143 27 204 38 265 48 36 6 88 15 115 21 28 5 97 19 155 30 147 29 204 46 285
85 147 69 314 209 353 293 l24 54 -16 107 c-20 131 -21 233 -2 269 44 84 221
190 434 261 153 51 371 65 551 35 137 -23 230 -72 305 -161 29 -35 38 -96 26
-182 -6 -42 -11 -109 -12 -149 -1 -67 1 -75 28 -104 16 -17 65 -54 109 -83 87
-58 124 -93 149 -142 20 -40 20 -51 0 -138 -27 -119 -84 -234 -144 -294 -105
-105 -413 -210 -525 -180 -22 6 -68 24 -103 40 -34 16 -69 29 -77 29 -29 0
-44 -44 -51 -152 l-7 -106 29 -15 c76 -38 179 -61 274 -61 80 0 110 5 193 32
54 17 117 40 140 50 23 11 57 25 76 33 49 20 473 231 551 275 36 20 85 48 110
63 25 14 67 37 93 51 29 15 105 83 194 172 81 82 149 148 153 148 3 0 14 -6
23 -13 17 -11 13 -26 -44 -202 -70 -218 -83 -251 -113 -283 -54 -60 -1002
-712 -1034 -712 -5 0 -14 -6 -20 -12 -16 -16 -144 -87 -252 -140 -102 -50
-152 -56 -275 -33 -161 31 -153 31 -160 -1 -34 -167 -115 -325 -241 -474 -25
-30 -55 -66 -67 -80 -64 -77 -181 -208 -289 -324 -75 -81 -101 -163 -102 -316
-1 -91 2 -110 21 -140 49 -78 124 -131 265 -185 176 -68 203 -80 388 -167 58
-27 119 -55 135 -63 137 -61 256 -130 319 -185 77 -68 95 -157 56 -275 -11
-33 -23 -69 -27 -79 -30 -92 -185 -361 -319 -558 -108 -157 -117 -171 -132
-186 -7 -8 -19 -27 -27 -43 l-15 -29 127 -147 c70 -82 131 -151 136 -154 5 -3
7 -19 5 -35 -5 -44 -44 -42 -199 9 -74 24 -219 72 -324 106 -104 34 -204 69
-221 78 -31 16 -64 67 -64 98 0 20 65 150 351 703 57 110 72 162 47 162 -7 0
-137 2 -288 4 -304 4 -373 14 -523 75 -43 17 -82 31 -85 31 -4 0 -75 -67 -158
-148 -192 -189 -310 -269 -426 -291 -116 -21 -331 21 -588 115 -58 21 -193 74
-227 90 -17 8 -33 14 -36 14 -3 0 -36 14 -74 31 -37 17 -81 37 -98 44 -38 17
-186 86 -292 136 -92 44 -111 47 -139 21 -10 -9 -71 -62 -134 -117 -63 -55
-133 -117 -155 -137 -48 -45 -78 -47 -83 -5 -2 16 4 44 12 62 9 18 16 38 16
44 0 6 7 25 14 43 8 18 36 92 62 163 25 72 53 144 60 162 8 17 14 35 14 40 0
24 99 267 112 274 14 8 78 -13 163 -51 11 -5 76 -32 145 -61 184 -76 193 -80
215 -89 11 -5 61 -25 110 -45 50 -21 99 -41 110 -45 11 -5 76 -32 145 -60 69
-29 139 -58 155 -65 163 -70 154 -68 166 -37 6 15 17 54 25 87 25 111 42 169
88 309 55 163 104 296 165 440 27 62 26 75 -1 80 -71 15 -301 68 -346 81 -28
8 -78 22 -110 30 -31 9 -70 20 -87 24 -16 5 -64 19 -105 31 -66 19 -174 56
-280 95 -502 185 -844 417 -985 669 -65 116 -78 167 -78 306 0 135 14 201 85
390 21 57 153 320 209 416 28 49 84 145 124 214 302 519 416 804 419 1049 3
328 -205 563 -679 765 -22 10 -49 21 -60 26 -11 5 -69 25 -130 45 -60 19 -126
40 -145 47 -19 6 -51 15 -70 20 -120 31 -267 67 -320 77 -39 8 -67 -3 -176
-70 -35 -21 -88 -52 -117 -67 -54 -30 -370 -211 -422 -243 -16 -11 -37 -22
-45 -25 -59 -26 -193 -117 -246 -166 -69 -65 -142 -167 -175 -245 -11 -26 -25
-57 -30 -68 -32 -65 -33 -148 -33 -2375 0 -1650 3 -2249 12 -2289 47 -222 190
-408 402 -523 36 -20 100 -57 143 -82 43 -25 79 -46 81 -46 2 0 61 -34 131
-75 69 -41 128 -75 130 -75 2 0 49 -27 103 -60 55 -33 102 -60 105 -60 3 0 56
-30 119 -66 117 -69 255 -148 418 -241 52 -30 102 -58 110 -63 153 -89 202
-117 239 -137 24 -13 93 -53 153 -88 59 -36 110 -65 113 -65 2 0 46 -25 97
-56 50 -31 101 -60 113 -65 11 -5 27 -13 35 -19 33 -21 158 -95 205 -120 48
-26 325 -185 430 -247 28 -16 57 -32 65 -36 8 -5 24 -13 35 -20 11 -7 110 -63
220 -126 110 -63 248 -143 308 -178 59 -34 109 -63 112 -63 3 0 33 -17 67 -38
185 -113 285 -157 398 -174 119 -19 285 -9 361 20 89 35 132 57 279 141 91 52
179 102 195 112 17 11 37 22 45 26 8 4 59 33 113 65 55 32 101 58 104 58 3 0
61 34 130 75 68 41 127 75 130 75 3 0 42 22 87 49 139 84 150 90 171 100 12 5
63 34 113 65 51 31 95 56 97 56 3 0 50 27 106 60 55 33 103 60 105 60 3 0 185
105 224 130 8 5 31 18 51 29 58 31 370 212 411 238 21 12 40 23 44 23 3 0 47
24 97 54 51 29 150 87 220 127 71 41 180 104 244 142 63 37 117 67 119 67 4 0
197 112 224 130 8 6 24 14 35 19 12 5 63 34 113 65 51 31 95 56 98 56 4 0 43
22 88 49 140 85 150 91 175 101 52 23 161 104 213 158 96 101 155 205 194 342
18 62 19 153 22 2280 1 1336 -1 2238 -7 2275 -16 103 -30 147 -78 245 -55 110
-148 215 -252 284 -58 38 -448 266 -456 266 -2 0 -60 34 -130 75 -69 41 -128
75 -130 75 -2 0 -49 27 -104 60 -56 33 -103 60 -105 60 -2 0 -61 34 -130 75
-69 41 -128 75 -130 75 -2 0 -50 27 -105 60 -56 33 -103 60 -105 60 -2 0 -61
34 -130 75 -69 41 -128 75 -130 75 -2 0 -50 27 -105 60 -56 33 -103 60 -105
60 -2 0 -61 34 -130 75 -69 41 -128 75 -131 75 -2 0 -49 27 -103 60 -55 33
-102 60 -105 60 -5 0 -192 107 -227 130 -8 6 -22 13 -30 17 -8 4 -42 23 -75
43 -33 20 -85 50 -115 67 -64 35 -569 325 -648 372 -29 17 -55 31 -57 31 -2 0
-49 27 -103 60 -55 33 -102 60 -105 60 -3 0 -32 16 -64 35 -63 37 -189 85
-225 85 -39 0 -68 12 -68 26 0 11 -19 14 -82 13 -68 -1 -86 -4 -100 -20z"/>
</g>
</svg>
