<svg xmlns="http://www.w3.org/2000/svg" width="32" height="32" viewBox="0 0 32 32">
    <path fill="#949EB7" fill-rule="evenodd" d="M9.058 22.153c-.102.262-.073.452.117.642.13.13.262.204.437.204.088 0 .16-.015.233-.044a219.348 219.348 0 0 1 4.959-1.663 1.11 1.11 0 0 0 .277-.175l7.714-7.758a.684.684 0 0 0 .103-.86 9.471 9.471 0 0 0-1.503-1.867c-.583-.583-1.254-1.08-1.983-1.531a.706.706 0 0 0-.86.102l-7.715 7.758a.564.564 0 0 0-.175.277c-.54 1.663-1.05 3.296-1.604 4.915zm3.281-1.473l-1.035-1.035c.219-.642.437-1.284.641-1.925l7.205-7.292c.248.19.495.437.743.641l-6.97 6.971c-.263.277-.248.657.029.934.131.13.262.204.437.204s.35-.044.496-.19l7-7.014c.248.262.467.554.656.83l-7.204 7.234c-.627.204-1.356.423-1.998.642z"/>
</svg>
