<svg xmlns="http://www.w3.org/2000/svg" width="32" height="32" viewBox="0 0 32 32">
    <path fill="#414141" fill-rule="evenodd" d="M11.95 15.95c0 1.65.175 2.962.288 3.637a22.72 22.72 0 0 0 3.762.475v1.925c-2.5-.112-4.762-.65-4.862-.675a1.006 1.006 0 0 1-.75-.725c-.013-.075-.388-1.8-.388-4.637 0-2.838.388-4.475.4-4.55a.994.994 0 0 1 .738-.713A27.93 27.93 0 0 1 16 10.025v1.912a22.53 22.53 0 0 0-3.762.475c-.113.65-.288 1.925-.288 3.538zm5.663 3.687a.589.589 0 0 1-.213-.05c-.15-.087-.2-.25-.2-.412V17.6c-1.35-.15-3.25-.525-3.487-.663-.3-.175-.513-.462-.513-.925 0-.462.213-.762.513-.925.237-.137 2.137-.525 3.487-.662V12.85c0-.175.05-.325.2-.413a.463.463 0 0 1 .475.025c1.85 1.238 3.563 3.175 3.625 3.263.138.162.138.4 0 .575-.062.087-1.775 2.012-3.625 3.262a.462.462 0 0 1-.262.075z"/>
</svg>
