<?xml version="1.0" standalone="no"?>
<!DOCTYPE svg PUBLIC "-//W3C//DTD SVG 20010904//EN"
 "http://www.w3.org/TR/2001/REC-SVG-20010904/DTD/svg10.dtd">
<svg version="1.0" xmlns="http://www.w3.org/2000/svg"
 width="900.000000pt" height="339.000000pt" viewBox="0 0 900.000000 339.000000"
 preserveAspectRatio="xMidYMid meet">
<metadata>
Created by potrace 1.10, written by Peter Selinger 2001-2011
</metadata>
<g transform="translate(0.000000,339.000000) scale(0.100000,-0.100000)"
fill="#373B60" stroke="none">
<path d="M1440 3375 c0 -8 -12 -18 -27 -21 -24 -6 -141 -69 -193 -104 -8 -6
-22 -13 -30 -17 -8 -4 -46 -26 -85 -48 -38 -23 -77 -44 -85 -48 -8 -4 -28 -16
-45 -26 -16 -11 -52 -32 -80 -47 -89 -49 -100 -55 -130 -74 -16 -11 -37 -23
-45 -27 -71 -36 -170 -99 -167 -107 2 -5 34 -20 73 -34 38 -13 73 -28 79 -33
5 -5 15 -9 21 -9 26 0 136 -75 174 -117 66 -76 80 -112 80 -211 0 -62 -6 -104
-20 -145 -22 -63 -70 -164 -100 -212 -29 -46 -59 -102 -106 -195 -36 -70 -44
-95 -44 -140 1 -46 5 -60 28 -86 76 -86 240 -166 442 -213 19 -5 56 -15 83
-22 70 -20 69 -22 122 246 9 41 23 109 32 150 13 56 14 78 6 86 -8 8 -57 12
-135 13 -147 1 -173 -9 -308 -117 -75 -60 -88 -75 -106 -125 -12 -31 -26 -57
-30 -57 -5 0 -15 35 -23 78 -17 90 -23 79 117 203 145 127 183 146 382 188 41
9 85 16 97 16 40 0 133 43 178 82 l45 40 0 78 c0 89 4 96 78 133 119 59 279
58 337 -3 25 -27 27 -34 22 -82 -7 -58 4 -79 56 -112 41 -25 50 -58 29 -109
-9 -23 -24 -51 -32 -62 -33 -43 -152 -85 -188 -66 -47 25 -72 9 -72 -45 0 -19
8 -29 35 -40 68 -28 112 -17 295 71 126 61 173 91 222 140 41 40 49 44 55 29
3 -9 1 -31 -6 -48 -7 -17 -15 -41 -18 -54 -7 -31 -65 -78 -228 -185 -239 -157
-246 -161 -313 -154 l-53 6 -29 -64 c-17 -37 -59 -97 -99 -143 -101 -115 -121
-147 -121 -196 1 -24 8 -49 18 -61 20 -23 67 -55 82 -55 5 0 52 -20 102 -43
51 -24 98 -46 103 -48 39 -17 85 -54 95 -78 9 -23 9 -38 -4 -73 -16 -49 -60
-133 -82 -159 -8 -8 -14 -19 -14 -23 0 -4 -15 -27 -34 -52 -39 -51 -38 -61 11
-117 47 -53 40 -71 -19 -48 -13 5 -54 19 -92 30 -130 41 -130 43 -45 210 34
65 59 126 56 134 -4 11 -34 15 -127 19 -71 3 -126 10 -133 17 -19 19 -37 12
-90 -37 -88 -82 -107 -92 -179 -92 -81 0 -168 28 -346 111 -46 22 -88 39 -93
39 -5 0 -28 -17 -50 -37 -23 -21 -48 -42 -56 -47 -25 -14 -35 8 -19 40 8 16
22 49 31 74 32 85 49 125 54 132 4 4 22 2 41 -6 33 -12 49 -18 125 -51 17 -7
66 -27 110 -45 44 -17 88 -36 98 -41 26 -14 32 -7 51 63 18 64 37 117 62 176
26 62 23 65 -88 95 -184 49 -222 63 -333 118 -92 45 -166 104 -202 162 -22 35
-25 52 -25 118 0 49 6 88 15 106 8 15 26 53 41 83 14 30 39 78 55 105 124 209
160 299 161 394 0 55 -4 71 -31 113 -33 52 -92 100 -149 123 -8 4 -23 11 -32
16 -35 18 -235 79 -261 79 -9 0 -38 -13 -65 -29 -27 -16 -76 -44 -108 -61
-149 -82 -205 -133 -231 -209 -10 -28 -13 -212 -13 -794 0 -684 2 -763 17
-810 19 -59 75 -119 144 -155 24 -13 58 -32 74 -42 17 -11 37 -23 45 -27 8 -4
47 -25 85 -48 39 -22 77 -44 85 -48 8 -4 24 -13 35 -20 11 -7 52 -30 90 -52
39 -22 79 -45 90 -52 11 -7 27 -16 35 -20 8 -4 47 -26 85 -48 39 -23 77 -44
85 -48 8 -4 29 -16 45 -27 17 -11 37 -23 45 -27 8 -4 47 -26 85 -48 39 -23 77
-45 85 -49 8 -4 24 -12 35 -19 11 -7 51 -30 90 -52 38 -22 79 -45 90 -52 57
-34 92 -43 161 -43 83 0 93 3 227 82 54 32 100 58 102 58 2 0 48 26 102 58 54
32 105 61 113 65 8 4 29 16 45 27 17 11 44 26 60 34 17 8 53 29 80 45 28 17
59 35 70 41 11 6 29 16 40 23 11 7 52 30 90 52 39 22 79 45 90 52 11 7 27 16
35 20 8 4 47 26 85 48 39 23 77 44 85 48 8 4 29 16 45 27 17 10 50 29 74 42
69 36 125 96 144 155 15 47 17 125 17 806 0 852 3 814 -77 894 -23 24 -53 48
-65 53 -13 6 -36 19 -53 30 -16 11 -37 23 -45 27 -18 8 -158 89 -180 103 -8 6
-22 13 -30 17 -8 4 -59 33 -113 65 -54 32 -100 58 -102 58 -2 0 -48 26 -102
58 -54 32 -105 61 -113 65 -8 4 -22 11 -30 17 -22 14 -162 95 -180 103 -8 4
-28 16 -45 27 -16 11 -37 23 -45 27 -18 8 -159 89 -180 103 -8 6 -22 13 -30
16 -52 20 -60 25 -55 34 4 6 -18 10 -59 10 -52 0 -66 -3 -66 -15z"/>
<path d="M3705 2376 l-25 -25 0 -664 c0 -657 0 -665 21 -691 l20 -26 458 0
c379 0 460 2 477 14 16 13 19 27 19 109 0 65 -4 99 -14 110 -12 15 -48 17
-341 17 -304 0 -328 1 -343 18 -14 15 -17 42 -17 158 0 96 4 144 12 152 9 9
88 12 295 12 235 0 289 3 313 15 l30 16 0 98 c0 82 -3 101 -18 114 -16 15 -53
17 -315 17 -283 0 -297 1 -307 19 -5 11 -10 78 -10 149 0 112 2 131 18 145 17
15 56 17 351 17 306 0 332 1 339 18 13 31 8 200 -6 214 -10 10 -112 14 -473
16 l-459 3 -25 -25z"/>
<path d="M5484 2390 c-26 -10 -45 -49 -108 -217 -8 -21 -28 -74 -46 -118 -18
-44 -38 -97 -46 -117 -26 -71 -47 -123 -59 -153 -12 -28 -26 -64 -59 -152 -22
-60 -47 -125 -61 -158 -7 -16 -20 -48 -28 -70 -38 -102 -50 -132 -63 -158 -8
-16 -14 -35 -14 -42 0 -7 -6 -26 -14 -42 -51 -104 -60 -165 -27 -183 30 -16
203 -13 227 4 19 14 34 43 70 139 23 62 47 111 59 119 5 4 145 8 311 8 226 0
304 -3 315 -12 9 -7 23 -33 33 -58 10 -25 24 -58 31 -75 7 -16 21 -49 31 -73
9 -24 25 -47 35 -53 10 -5 60 -9 111 -9 132 0 158 22 124 102 -8 18 -22 53
-31 78 -10 25 -23 59 -30 75 -7 17 -20 48 -28 70 -8 22 -23 60 -32 85 -9 25
-24 63 -32 85 -9 22 -21 54 -28 70 -7 17 -20 48 -28 70 -29 79 -45 121 -77
200 -18 44 -38 97 -46 118 -26 70 -47 122 -59 152 -7 17 -20 48 -28 70 -65
176 -79 208 -99 230 -16 18 -33 20 -151 22 -72 1 -142 -2 -153 -7z m163 -372
c9 -13 32 -66 59 -140 44 -119 73 -196 89 -233 52 -120 51 -116 30 -131 -15
-12 -59 -14 -210 -12 l-190 3 -3 24 c-2 13 4 42 13 65 10 23 24 59 32 81 9 22
21 54 28 70 7 17 20 49 29 73 9 23 23 61 32 85 46 121 66 147 91 115z"/>
<path d="M7025 2390 c-205 -29 -364 -144 -411 -299 -26 -87 -14 -219 28 -297
22 -41 99 -114 140 -132 80 -37 170 -66 243 -81 22 -5 63 -14 90 -21 28 -6 77
-19 110 -27 120 -29 169 -48 202 -79 74 -70 24 -168 -108 -213 -89 -30 -260
-30 -339 0 -62 23 -87 43 -137 112 l-35 47 -112 0 c-74 0 -116 -4 -124 -12
-33 -33 10 -168 75 -240 29 -31 138 -108 153 -108 5 0 21 -6 37 -14 83 -41
145 -51 318 -50 145 0 180 3 237 22 162 51 265 130 313 238 23 50 27 73 27
154 0 78 -4 102 -22 137 -27 53 -93 128 -128 147 -96 52 -232 98 -342 116
-106 17 -264 63 -309 91 -40 24 -54 60 -48 124 4 42 10 54 41 80 73 61 219 82
339 48 50 -14 71 -28 130 -85 l71 -68 75 -1 c100 -2 112 0 140 18 29 18 25 54
-13 134 -53 112 -155 188 -321 242 -60 19 -236 29 -320 17z"/>
<path d="M8013 2390 c-12 -5 -26 -18 -32 -29 -8 -13 -11 -232 -11 -679 0 -652
0 -660 21 -686 l20 -26 455 0 c295 0 462 4 475 10 17 10 19 22 19 113 0 67 -4
107 -12 115 -9 9 -98 12 -338 12 -304 0 -328 1 -343 18 -14 15 -17 42 -17 158
0 96 4 144 12 152 9 9 87 12 290 12 221 0 286 3 313 14 l35 15 0 99 c0 83 -3
102 -18 115 -16 15 -53 17 -313 17 -216 0 -298 3 -307 12 -8 8 -12 56 -12 148
0 120 2 139 18 153 17 15 55 17 343 17 240 0 328 3 337 12 8 8 12 48 12 115 0
102 0 104 -26 113 -32 13 -890 12 -921 0z"/>
</g>
</svg>
