<?xml version="1.0" standalone="no"?>
<!DOCTYPE svg PUBLIC "-//W3C//DTD SVG 20010904//EN"
 "http://www.w3.org/TR/2001/REC-SVG-20010904/DTD/svg10.dtd">
<svg version="1.0" xmlns="http://www.w3.org/2000/svg"
 width="505.000000pt" height="505.000000pt" viewBox="0 0 505.000000 505.000000"
 preserveAspectRatio="xMidYMid meet">
<metadata>
Created by potrace 1.14, written by Peter Selinger 2001-2017
</metadata>
<g transform="translate(0.000000,505.000000) scale(0.100000,-0.100000)"
fill="#7b7b7b" stroke="none">
<path d="M4205 4208 c-123 -43 -240 -124 -274 -191 -8 -15 -18 -27 -23 -27 -4
0 -8 -9 -8 -20 0 -11 -4 -20 -10 -20 -5 0 -10 -9 -10 -20 0 -11 -4 -20 -10
-20 -5 0 -10 -13 -10 -28 0 -34 -16 -52 -48 -52 -27 0 -52 -21 -52 -43 0 -9
-6 -18 -12 -20 -7 -3 11 -6 40 -6 l52 -1 0 -55 0 -55 -36 0 c-37 0 -64 -18
-64 -43 0 -9 -6 -18 -12 -20 -7 -3 18 -6 55 -6 65 -1 97 -14 97 -38 0 -15 25
-63 33 -63 4 0 7 -7 7 -16 0 -9 8 -24 18 -33 9 -9 23 -28 31 -42 7 -15 24 -33
37 -40 13 -7 24 -16 24 -21 0 -4 6 -8 13 -8 7 0 19 -9 27 -20 8 -11 22 -20 32
-20 10 0 18 -4 18 -10 0 -5 9 -10 20 -10 11 0 20 -4 20 -10 0 -5 15 -10 34
-10 19 0 38 -4 41 -10 3 -5 40 -10 81 -10 43 0 74 4 74 10 0 6 18 10 40 10 22
0 40 5 40 10 0 6 9 10 19 10 23 0 101 40 101 52 0 4 5 8 11 8 17 0 95 82 101
106 4 17 -1 24 -28 35 -19 7 -34 15 -34 18 0 4 -14 12 -32 20 -26 12 -33 12
-36 1 -7 -20 -83 -90 -98 -90 -8 0 -14 -4 -14 -10 0 -5 -11 -10 -25 -10 -14 0
-25 -4 -25 -10 0 -6 -35 -10 -84 -10 -47 0 -88 5 -91 10 -3 6 -15 10 -26 10
-10 0 -19 5 -19 10 0 6 -7 10 -15 10 -31 0 -125 112 -125 149 0 20 5 21 128
21 128 0 129 0 140 25 7 14 12 30 12 35 0 6 -65 10 -160 10 l-160 0 0 55 0 55
174 0 c157 0 174 2 179 18 2 9 8 25 12 35 7 16 -5 17 -169 17 -200 0 -195 -3
-155 81 25 51 99 129 123 129 9 0 16 3 16 8 0 13 78 32 134 32 51 0 73 -5 136
-34 34 -15 100 -76 100 -93 0 -7 7 -13 15 -13 8 0 15 5 15 10 0 6 6 10 13 10
8 0 22 9 32 20 10 11 22 20 27 20 17 0 35 24 26 35 -4 5 -18 22 -29 38 -25 33
-131 107 -153 107 -9 0 -16 3 -16 8 0 24 -225 40 -285 20z"/>
</g>
<g transform="translate(0.000000,505.000000) scale(0.100000,-0.100000)"
fill="#000000" stroke="none">
<path d="M1807 4023 c-5 -4 -34 -11 -65 -15 -98 -13 -132 -20 -138 -29 -3 -5
-16 -9 -30 -9 -13 0 -33 -4 -44 -10 -11 -5 -29 -14 -40 -20 -11 -5 -27 -10
-35 -10 -8 0 -15 -4 -15 -10 0 -5 -7 -10 -15 -10 -14 0 -53 -18 -65 -30 -3 -3
-18 -12 -35 -20 -16 -8 -39 -23 -49 -32 -11 -10 -25 -18 -31 -18 -6 0 -17 -9
-25 -20 -8 -11 -20 -20 -27 -20 -15 0 -232 -214 -264 -260 -13 -19 -31 -44
-41 -54 -10 -11 -24 -32 -30 -48 -7 -15 -16 -28 -20 -28 -5 0 -8 -6 -8 -14 0
-8 -3 -16 -7 -18 -11 -4 -73 -128 -73 -144 0 -8 -4 -14 -10 -14 -5 0 -10 -7
-10 -15 0 -8 -4 -24 -10 -35 -5 -11 -14 -29 -20 -40 -6 -11 -10 -29 -10 -40 0
-11 -4 -20 -10 -20 -5 0 -10 -13 -10 -29 0 -17 -4 -33 -10 -36 -5 -3 -10 -19
-10 -34 0 -15 -4 -31 -9 -36 -5 -6 -11 -28 -15 -50 -3 -22 -10 -67 -16 -100
-29 -164 -29 -530 0 -705 6 -36 13 -83 16 -105 3 -22 10 -44 15 -49 5 -6 9
-20 9 -32 0 -13 5 -26 10 -29 6 -3 10 -17 10 -31 0 -13 4 -32 9 -42 5 -9 14
-29 20 -44 6 -16 16 -40 22 -55 6 -16 15 -36 20 -45 5 -10 9 -25 9 -33 0 -8 5
-15 10 -15 6 0 10 -9 10 -20 0 -11 5 -20 10 -20 6 0 10 -9 10 -20 0 -11 5 -20
10 -20 6 0 10 -6 10 -13 0 -7 9 -23 20 -35 11 -12 20 -28 20 -37 0 -8 4 -15 8
-15 5 0 15 -12 23 -27 8 -16 21 -35 29 -43 9 -8 27 -31 40 -50 31 -45 195
-206 232 -228 15 -9 28 -20 28 -24 0 -4 6 -8 13 -8 7 0 22 -8 33 -17 26 -23
66 -47 134 -79 30 -14 63 -30 72 -35 10 -5 25 -9 33 -9 8 0 15 -4 15 -10 0 -5
11 -10 24 -10 14 0 28 -4 31 -10 3 -5 21 -10 40 -10 19 0 37 -4 40 -10 3 -5
22 -10 41 -10 20 0 44 -5 54 -10 26 -14 420 -14 434 0 5 5 29 10 52 10 24 0
46 5 49 10 3 6 16 10 28 10 24 0 93 22 103 33 4 4 18 7 31 7 12 0 23 5 23 10
0 6 6 10 13 10 18 0 67 24 67 33 0 4 9 7 20 7 11 0 20 5 20 10 0 6 9 10 20 10
11 0 20 4 20 9 0 5 14 14 30 21 17 7 30 16 30 21 0 5 6 9 14 9 7 0 26 12 42
28 16 15 45 38 64 52 40 28 93 81 130 129 14 18 34 43 45 55 58 61 225 343
225 378 0 4 8 27 19 51 30 69 62 176 82 277 25 126 31 185 36 380 6 262 -8
379 -79 630 -5 19 -12 45 -15 58 -3 12 -9 25 -14 28 -5 3 -9 12 -9 21 0 21
-119 267 -131 271 -5 2 -9 8 -9 14 0 9 -56 96 -69 108 -4 3 -20 23 -36 45 -39
53 -190 201 -226 222 -16 10 -29 21 -29 25 0 4 -6 8 -12 8 -7 0 -26 12 -43 26
-16 14 -47 33 -67 42 -21 9 -38 20 -38 24 0 5 -9 8 -20 8 -11 0 -20 5 -20 10
0 6 -9 10 -20 10 -11 0 -20 4 -20 8 0 5 -22 15 -50 22 -27 7 -50 17 -50 22 0
4 -13 8 -29 8 -17 0 -33 5 -36 10 -3 6 -21 10 -39 10 -17 0 -36 4 -42 9 -5 5
-34 12 -64 16 -87 11 -355 17 -363 8z m280 -658 c69 -18 145 -54 193 -92 69
-55 180 -178 180 -200 0 -7 5 -13 10 -13 6 0 10 -9 10 -20 0 -11 5 -20 10 -20
6 0 10 -9 10 -20 0 -11 5 -20 10 -20 6 0 10 -9 10 -19 0 -11 5 -23 10 -26 6
-3 10 -17 10 -31 0 -13 5 -24 10 -24 6 0 10 -13 10 -30 0 -16 5 -30 10 -30 6
0 10 -17 10 -38 0 -21 4 -42 9 -47 17 -18 23 -110 24 -335 0 -131 -4 -246 -11
-275 -6 -27 -14 -66 -17 -85 -4 -19 -10 -44 -15 -55 -4 -11 -13 -36 -20 -55
-18 -52 -31 -82 -47 -110 -8 -14 -17 -33 -20 -42 -3 -10 -9 -18 -14 -18 -5 0
-9 -9 -9 -20 0 -11 -4 -20 -10 -20 -5 0 -10 -4 -10 -10 0 -20 -107 -134 -160
-170 -19 -13 -37 -27 -40 -31 -8 -10 -64 -37 -117 -56 -72 -25 -269 -22 -341
5 -89 35 -144 72 -227 157 -72 73 -99 113 -155 225 -56 111 -91 278 -106 500
-9 134 23 414 56 495 5 11 19 49 31 84 12 35 34 86 50 113 16 27 29 51 29 54
0 3 6 12 13 20 6 8 30 36 52 62 75 90 192 166 304 197 65 18 190 18 258 0z"/>
</g>
</svg>
