<?xml version="1.0" standalone="no"?>
<!DOCTYPE svg PUBLIC "-//W3C//DTD SVG 20010904//EN"
 "http://www.w3.org/TR/2001/REC-SVG-20010904/DTD/svg10.dtd">
<svg version="1.0" xmlns="http://www.w3.org/2000/svg"
 width="843.000000pt" height="618.000000pt" viewBox="0 0 843.000000 618.000000"
 preserveAspectRatio="xMidYMid meet">
<metadata>
Created by potrace 1.10, written by Peter Selinger 2001-2011
</metadata>
<g transform="translate(0.000000,618.000000) scale(0.100000,-0.100000)"
fill="#7b7b7b" stroke="none">
<path d="M6210 5209 c-118 -12 -251 -62 -340 -128 -43 -32 -140 -132 -140
-146 -1 -5 -14 -26 -30 -45 -17 -19 -30 -42 -30 -51 0 -9 -7 -22 -15 -29 -8
-7 -15 -24 -15 -39 0 -14 -7 -35 -15 -45 -8 -11 -15 -30 -15 -42 0 -21 -5 -23
-56 -26 -55 -3 -56 -3 -71 -43 -29 -80 -31 -75 24 -68 65 7 83 -10 83 -78 0
-69 -13 -91 -53 -89 -60 4 -66 0 -87 -42 -11 -23 -20 -46 -20 -51 0 -6 30 -7
74 -2 88 8 136 -9 136 -49 0 -13 7 -29 15 -36 8 -7 15 -19 15 -27 0 -8 14 -35
30 -60 17 -24 30 -46 30 -49 0 -2 8 -12 18 -22 9 -10 35 -40 57 -66 106 -126
293 -206 485 -206 105 0 162 11 285 57 107 39 260 165 280 231 5 19 2 24 -24
33 -17 6 -31 14 -31 19 0 4 -8 10 -17 14 -10 3 -31 15 -48 26 -61 40 -75 39
-96 -10 -17 -38 -100 -102 -177 -138 -50 -23 -70 -26 -167 -26 -105 0 -113 2
-178 34 -74 37 -179 139 -200 193 -3 9 -11 17 -17 17 -16 0 -12 37 6 54 13 13
44 16 178 16 102 0 166 -4 173 -11 7 -7 17 2 32 33 37 77 48 73 -209 73 -194
0 -232 2 -240 15 -15 24 -12 126 4 139 10 9 81 11 253 9 223 -3 239 -2 256 16
9 10 17 29 17 41 0 13 7 25 15 29 8 3 15 10 15 16 0 7 -90 10 -265 10 -230 0
-266 2 -272 15 -3 9 2 24 11 34 9 10 16 25 16 33 0 9 7 21 15 28 8 7 15 21 15
31 0 11 4 19 8 19 5 0 23 20 40 44 43 60 165 131 251 146 102 18 233 -10 308
-66 17 -13 36 -24 40 -24 17 0 62 -55 69 -83 8 -34 33 -47 46 -24 5 10 14 17
19 17 6 0 38 21 72 47 34 25 63 47 65 48 5 4 -33 65 -40 65 -5 0 -8 6 -8 13 0
14 -66 77 -81 77 -5 0 -9 5 -9 10 0 6 -10 15 -22 20 -28 12 -61 33 -68 42 -3
4 -46 18 -95 32 -96 27 -200 35 -305 25z"/>
</g>
<g transform="translate(0.000000,618.000000) scale(0.100000,-0.100000)"
fill="#000000" stroke="none">
<path d="M4190 4029 c-117 -6 -235 -24 -293 -45 -20 -8 -46 -14 -56 -14 -10 0
-32 -7 -47 -15 -16 -8 -37 -15 -46 -15 -9 0 -20 -4 -23 -10 -3 -5 -14 -10 -24
-10 -35 0 -269 -128 -363 -199 -54 -40 -98 -78 -98 -83 0 -6 37 -54 83 -107
45 -53 106 -123 134 -156 77 -90 129 -145 138 -145 4 0 24 18 43 41 38 44 144
132 207 170 137 85 292 119 438 98 122 -18 202 -61 263 -143 65 -87 78 -190
34 -276 -39 -77 -223 -222 -332 -264 -26 -10 -50 -22 -53 -27 -3 -5 -36 -24
-73 -42 -398 -200 -618 -362 -737 -542 -58 -88 -114 -201 -126 -255 -31 -131
-48 -249 -51 -350 l-3 -85 1028 -3 c818 -2 1027 0 1027 10 1 7 0 119 0 248 0
172 -4 236 -13 242 -7 4 -289 8 -627 8 -338 0 -621 0 -627 0 -24 0 -13 36 23
79 39 45 211 187 279 229 22 13 60 38 85 55 25 17 81 49 125 72 78 41 305 174
315 185 3 3 25 19 50 35 47 32 147 129 204 198 48 59 89 140 116 226 20 65 22
88 17 200 -4 108 -9 138 -35 208 -60 165 -199 313 -358 383 -27 11 -58 25 -69
30 -11 5 -42 15 -70 23 -161 46 -278 57 -485 46z"/>
<path d="M1780 3964 c-157 -163 -444 -332 -642 -378 l-28 -6 0 -255 c0 -176 3
-256 11 -261 18 -11 171 26 254 61 17 7 55 23 85 35 29 12 71 33 92 46 21 13
40 24 43 24 9 0 109 63 146 92 20 15 42 28 48 28 16 0 16 -1276 0 -1286 -6 -4
-139 -6 -294 -5 -230 1 -285 -1 -294 -13 -8 -9 -11 -84 -9 -252 l3 -239 865 0
865 0 3 236 c2 211 1 239 -14 254 -15 14 -44 16 -265 14 -137 -1 -253 1 -257
5 -4 4 -9 440 -12 969 l-5 962 -280 3 -281 2 -34 -36z"/>
<path d="M6344 2322 c-6 -4 -55 -65 -109 -137 -53 -71 -101 -132 -104 -135 -4
-3 -45 -54 -91 -115 -47 -60 -87 -112 -91 -115 -3 -3 -20 -25 -37 -49 -28 -39
-32 -52 -32 -111 0 -53 4 -69 16 -74 9 -3 100 -6 204 -6 l189 0 5 -42 c3 -24
4 -66 3 -95 -1 -28 2 -55 6 -60 15 -14 148 -8 158 8 5 8 9 41 8 74 -2 123 -6
114 59 117 l57 3 0 70 0 70 -50 3 c-27 2 -54 7 -58 11 -5 5 -8 132 -7 283 0
151 -2 283 -6 292 -5 12 -19 16 -58 16 -28 0 -56 -4 -62 -8z m-26 -420 c2 -81
-2 -140 -8 -152 -10 -19 -19 -20 -123 -18 -132 4 -134 6 -59 101 26 33 67 90
92 126 49 73 58 82 80 78 12 -2 16 -26 18 -135z"/>
<path d="M6944 2321 c-61 -16 -144 -72 -183 -124 -56 -75 -71 -118 -71 -203 0
-93 24 -149 95 -219 74 -75 122 -95 229 -95 89 0 145 17 175 54 8 9 20 16 29
16 12 0 13 -9 8 -49 -18 -136 -92 -211 -208 -211 -51 0 -73 6 -113 29 -28 16
-57 36 -64 45 -19 23 -28 20 -64 -20 -54 -62 -54 -63 -6 -106 88 -79 127 -93
254 -93 91 0 104 3 152 29 94 52 153 137 192 277 30 107 30 339 1 424 -39 114
-93 181 -183 226 -46 24 -185 35 -243 20z m154 -147 c43 -18 88 -58 108 -96 8
-15 14 -55 14 -92 0 -64 -1 -65 -48 -114 -39 -40 -56 -50 -94 -56 -76 -11
-116 1 -168 53 -64 65 -77 133 -39 206 51 96 141 135 227 99z"/>
<path d="M5607 1723 c-4 -3 -7 -38 -7 -78 0 -73 10 -95 42 -95 22 0 23 -29 3
-87 -16 -47 -11 -73 14 -73 52 0 91 105 91 245 l0 95 -68 0 c-38 0 -72 -3 -75
-7z"/>
</g>
</svg>
