<?xml version="1.0" standalone="no"?>
<!DOCTYPE svg PUBLIC "-//W3C//DTD SVG 20010904//EN"
 "http://www.w3.org/TR/2001/REC-SVG-20010904/DTD/svg10.dtd">
<svg version="1.0" xmlns="http://www.w3.org/2000/svg"
 width="612.000000pt" height="615.000000pt" viewBox="0 0 612.000000 615.000000"
 preserveAspectRatio="xMidYMid meet">
<metadata>
Created by potrace 1.10, written by Peter Selinger 2001-2011
</metadata>
<g transform="translate(0.000000,615.000000) scale(0.100000,-0.100000)"
fill="#7b7b7b" stroke="none">
<path d="M4084 5185 c-10 -8 -36 -15 -57 -15 -24 0 -40 -5 -43 -15 -4 -8 -17
-15 -30 -15 -14 0 -27 -7 -30 -15 -4 -8 -14 -15 -24 -15 -11 0 -34 -13 -52
-30 -18 -16 -36 -30 -41 -30 -10 0 -117 -104 -117 -114 0 -7 -12 -24 -42 -57
-10 -10 -18 -24 -18 -30 0 -6 -7 -17 -15 -25 -8 -9 -15 -24 -15 -33 0 -10 -7
-24 -15 -31 -8 -7 -15 -25 -15 -40 0 -15 -6 -33 -14 -40 -8 -6 -16 -26 -18
-43 -3 -31 -4 -32 -59 -35 -49 -3 -57 -6 -72 -31 -9 -16 -17 -38 -17 -49 0
-11 -7 -22 -15 -26 -37 -14 -10 -26 60 -26 l75 0 0 -73 c0 -42 -5 -78 -12 -85
-7 -7 -27 -9 -54 -5 -38 5 -46 2 -63 -18 -11 -13 -20 -34 -21 -46 0 -13 -4
-23 -10 -23 -5 0 -10 -6 -10 -12 0 -10 22 -12 84 -10 98 5 146 -13 146 -53 0
-13 7 -30 15 -39 8 -8 15 -24 15 -36 0 -11 7 -23 15 -26 8 -4 15 -13 15 -20 0
-15 39 -76 53 -82 4 -2 7 -10 7 -18 0 -8 7 -17 15 -20 8 -4 15 -11 15 -16 0
-5 16 -24 37 -41 20 -18 43 -40 52 -49 8 -10 21 -18 27 -18 7 0 14 -3 16 -7 6
-14 67 -53 82 -53 7 0 16 -7 20 -15 3 -8 15 -15 26 -15 12 0 28 -7 36 -15 9
-8 32 -15 52 -15 20 0 46 -7 56 -15 28 -21 259 -21 300 0 15 8 41 15 56 15 15
0 33 7 40 15 7 8 25 15 40 15 15 0 33 7 40 15 7 8 21 15 31 15 10 0 33 14 51
30 18 17 38 30 46 30 7 0 15 7 18 15 4 8 11 15 17 15 16 0 107 103 107 121 0
9 8 20 17 23 10 4 13 10 7 15 -12 12 -73 48 -101 60 -11 5 -24 15 -28 20 -3 6
-14 11 -25 11 -10 0 -20 7 -24 15 -3 8 -17 15 -30 15 -19 0 -27 -7 -32 -25 -3
-14 -10 -25 -15 -25 -5 0 -13 -8 -16 -17 -7 -19 -39 -53 -50 -53 -5 0 -21 -14
-37 -30 -16 -17 -39 -30 -51 -30 -12 0 -30 -7 -41 -15 -10 -8 -36 -15 -56 -15
-21 0 -55 -7 -77 -16 -37 -14 -42 -14 -63 0 -13 10 -43 16 -74 16 -34 0 -56 5
-64 15 -7 8 -21 15 -31 15 -11 0 -19 4 -19 9 0 5 -10 13 -22 16 -27 8 -158
142 -158 160 0 7 -7 18 -16 25 -9 8 -14 25 -12 44 l3 31 205 1 c198 2 205 2
208 22 2 11 10 26 18 32 8 7 14 23 14 36 l0 25 -241 -1 c-172 -1 -245 2 -255
11 -10 8 -14 33 -14 80 l0 69 268 0 268 0 17 29 c9 16 17 38 17 49 0 11 7 22
15 26 8 3 15 10 15 16 0 7 -96 10 -285 10 -274 0 -285 1 -285 19 0 11 7 32 14
48 8 15 18 35 21 43 22 56 122 179 146 179 9 1 22 8 29 16 7 8 18 15 25 15 7
0 18 7 25 15 7 8 25 15 40 15 15 0 33 7 40 15 17 21 196 21 224 0 11 -8 32
-15 47 -15 14 0 32 -7 39 -15 7 -8 21 -15 31 -15 11 0 19 -4 19 -8 0 -4 23
-25 50 -45 28 -21 50 -44 50 -51 0 -8 7 -16 15 -20 8 -3 15 -12 15 -20 0 -33
33 -27 81 14 38 32 48 40 55 40 3 0 24 14 46 31 34 28 37 33 25 48 -8 9 -17
24 -20 34 -4 9 -11 17 -17 17 -5 0 -10 6 -10 13 0 15 -64 77 -79 77 -6 0 -11
4 -11 8 0 14 -99 82 -119 82 -10 0 -21 7 -25 15 -3 9 -18 15 -39 15 -19 0 -40
7 -47 15 -18 22 -377 22 -406 0z"/>
</g>
<g transform="translate(0.000000,615.000000) scale(0.100000,-0.100000)"
fill="#000000" stroke="none">
<path d="M1779 4225 c-85 -12 -100 -16 -209 -50 -265 -82 -502 -275 -604 -490
-10 -22 -23 -48 -28 -58 -28 -58 -52 -259 -40 -333 13 -74 30 -139 41 -162 5
-9 17 -34 27 -55 25 -50 168 -215 200 -229 13 -6 24 -14 24 -17 0 -4 20 -18
45 -31 26 -14 44 -31 43 -39 -2 -8 -32 -34 -68 -59 -83 -56 -230 -200 -280
-273 -39 -60 -100 -180 -100 -202 0 -6 -7 -30 -15 -52 -16 -45 -19 -223 -5
-315 28 -190 122 -369 267 -511 104 -103 189 -163 298 -213 44 -20 88 -41 98
-47 10 -5 37 -14 60 -19 23 -5 71 -17 107 -26 183 -45 431 -45 620 1 36 8 84
20 107 25 23 5 50 14 60 19 24 14 110 51 117 51 7 0 109 62 116 70 3 3 23 17
45 30 61 36 181 157 229 230 63 95 116 201 116 232 0 8 5 19 10 24 10 10 25
105 37 238 8 96 -24 265 -66 344 -5 9 -12 24 -16 32 -37 92 -204 275 -321 353
-103 68 -103 68 -41 108 28 18 60 37 69 41 22 9 150 143 180 188 13 19 32 53
42 75 10 22 23 47 27 57 4 9 15 58 24 109 18 102 10 207 -22 319 -64 217 -296
454 -538 549 -33 13 -74 29 -92 37 -17 8 -40 14 -51 14 -12 0 -33 5 -47 10
-43 17 -232 40 -309 39 -39 -1 -110 -7 -157 -14z m336 -534 c99 -36 127 -53
183 -109 84 -84 97 -115 97 -236 0 -85 -4 -108 -23 -148 -50 -101 -149 -181
-272 -220 -73 -23 -242 -24 -296 -2 -172 69 -256 142 -295 257 -65 187 44 378
261 458 67 24 278 25 345 0z m-17 -1200 c77 -22 135 -43 142 -52 3 -3 26 -18
51 -32 102 -60 178 -173 202 -304 14 -74 14 -87 -2 -160 -27 -123 -85 -210
-196 -292 -56 -41 -83 -54 -170 -84 -82 -27 -276 -29 -350 -3 -84 30 -170 76
-218 117 -52 45 -122 145 -132 189 -4 16 -11 32 -16 35 -17 11 -11 215 8 265
57 154 188 268 368 320 85 25 227 25 313 1z"/>
<path d="M4940 2230 c-132 -24 -269 -91 -270 -131 0 -9 24 -42 53 -74 l53 -59
22 22 c12 12 41 34 64 49 37 24 53 28 118 28 86 0 122 -18 140 -71 26 -77 -16
-120 -220 -225 -25 -13 -47 -25 -50 -29 -3 -3 -24 -17 -47 -32 -84 -55 -147
-170 -155 -283 l-3 -50 344 -3 c214 -1 348 1 354 7 8 8 12 102 8 161 -1 6 -82
10 -221 10 -140 0 -220 4 -220 10 0 23 83 88 205 160 106 62 199 151 208 199
23 111 -13 211 -93 262 -67 43 -201 65 -290 49z"/>
<path d="M4036 2215 c-76 -17 -154 -57 -196 -100 l-34 -35 31 -32 c17 -18 39
-43 49 -55 21 -26 49 -30 61 -9 4 7 30 28 56 46 45 30 56 33 127 33 70 1 82
-2 114 -26 39 -30 53 -73 42 -130 -11 -58 -91 -117 -160 -117 -72 0 -76 -4
-76 -75 l0 -63 68 -7 c85 -8 135 -29 167 -71 21 -27 25 -44 25 -97 0 -60 -2
-66 -36 -100 -30 -29 -46 -37 -91 -43 -96 -12 -172 2 -218 38 -22 18 -41 36
-43 40 -9 19 -33 4 -76 -48 -25 -31 -46 -62 -46 -70 0 -18 98 -91 135 -100 17
-4 36 -12 44 -18 9 -7 65 -11 150 -10 132 0 138 1 203 32 147 70 211 211 161
357 -20 61 -100 145 -137 145 -15 0 -26 6 -26 13 0 15 31 47 46 47 16 0 80 73
97 112 19 40 23 142 7 182 -16 43 -81 106 -134 130 -96 44 -200 54 -310 31z"/>
<path d="M3477 1573 c-9 -8 -9 -156 -1 -177 3 -9 15 -16 25 -16 29 0 34 -27
16 -93 -18 -67 -14 -87 17 -87 35 0 44 13 72 95 20 62 26 101 26 171 1 50 -2
96 -6 103 -8 12 -138 16 -149 4z"/>
</g>
</svg>
