<?xml version="1.0" standalone="no"?>
<!DOCTYPE svg PUBLIC "-//W3C//DTD SVG 20010904//EN"
 "http://www.w3.org/TR/2001/REC-SVG-20010904/DTD/svg10.dtd">
<svg version="1.0" xmlns="http://www.w3.org/2000/svg"
 width="900.000000pt" height="390.000000pt" viewBox="0 0 900.000000 390.000000"
 preserveAspectRatio="xMidYMid meet">
<metadata>
Created by potrace 1.10, written by Peter Selinger 2001-2011
</metadata>
<g transform="translate(0.000000,390.000000) scale(0.100000,-0.100000)"
fill="#373b60" stroke="none">
<path d="M1738 2986 c-36 -19 -95 -53 -132 -75 -36 -23 -68 -41 -71 -41 -3 0
-54 -29 -113 -64 -60 -36 -125 -72 -145 -82 -43 -20 -37 -36 21 -55 106 -34
180 -99 207 -180 16 -49 16 -55 0 -116 -16 -57 -60 -156 -85 -188 -34 -44 -80
-155 -80 -191 0 -38 5 -46 43 -76 66 -53 187 -103 299 -123 35 -7 39 -5 49 21
6 16 17 63 25 104 8 41 18 93 23 115 14 57 4 63 -93 62 -78 -2 -87 -4 -132
-36 -59 -41 -99 -82 -119 -122 -22 -42 -31 -36 -39 24 l-6 52 71 67 c83 76
169 123 249 132 141 18 228 69 216 128 -12 62 27 101 119 120 104 21 182 -18
170 -85 -6 -29 -2 -36 24 -56 56 -43 37 -116 -38 -155 -18 -10 -47 -16 -64
-15 -44 4 -60 -7 -47 -32 19 -34 75 -24 195 35 61 30 125 69 143 87 40 37 61
28 37 -17 -8 -16 -15 -34 -15 -40 0 -13 -31 -38 -130 -105 -131 -89 -169 -109
-209 -109 -36 0 -41 -3 -61 -42 -12 -24 -46 -70 -75 -102 -58 -64 -70 -92 -56
-128 9 -24 22 -32 106 -68 80 -34 115 -53 137 -77 20 -21 20 -24 5 -62 -9 -21
-34 -69 -57 -105 -22 -37 -40 -71 -40 -77 0 -5 10 -23 22 -39 12 -16 19 -33
15 -36 -7 -7 -81 11 -134 33 -20 8 -33 20 -33 31 0 9 18 51 40 92 22 41 40 78
40 81 0 4 -35 9 -77 11 -43 3 -85 9 -94 12 -11 5 -32 -6 -63 -33 -58 -50 -83
-57 -153 -41 -51 11 -161 54 -207 81 -15 9 -27 5 -63 -20 -49 -35 -64 -25 -38
25 8 16 15 34 15 40 0 23 32 74 46 74 9 0 39 -10 67 -21 98 -40 122 -50 144
-61 26 -13 43 -4 43 23 0 10 4 27 9 37 20 38 42 112 36 122 -3 5 -16 10 -28
10 -29 0 -168 45 -233 76 -76 36 -141 97 -154 145 -17 61 3 123 82 255 141
237 117 329 -106 406 -66 23 -128 27 -149 9 -8 -6 -34 -22 -58 -35 -89 -48
-107 -61 -130 -95 l-24 -35 -3 -480 c-2 -265 0 -500 3 -522 7 -47 52 -99 112
-130 21 -10 78 -43 127 -73 50 -29 99 -57 111 -62 11 -5 27 -13 35 -19 40 -25
155 -93 174 -101 12 -5 28 -13 36 -19 8 -5 51 -30 95 -55 44 -26 87 -50 95
-55 148 -87 177 -89 299 -23 77 41 191 107 231 133 8 6 24 14 36 19 19 8 134
76 174 101 8 6 24 14 36 19 11 5 50 27 86 49 35 22 95 56 132 76 78 42 97 59
120 103 14 28 16 90 16 526 0 546 2 529 -65 584 -19 16 -55 39 -82 53 -26 14
-88 49 -137 79 -50 29 -99 57 -111 62 -11 5 -27 13 -35 19 -40 25 -155 93
-174 101 -12 5 -28 13 -36 19 -8 5 -51 30 -95 55 -44 26 -87 51 -95 56 -47 28
-103 49 -132 49 -19 0 -63 -15 -100 -34z"/>
<path d="M3252 2378 c-9 -9 -12 -116 -12 -434 0 -371 2 -424 16 -438 13 -14
55 -16 303 -16 237 0 291 3 300 14 7 9 11 38 9 73 l-3 58 -215 5 c-118 3 -221
9 -227 13 -17 11 -18 188 -1 205 8 8 64 12 184 12 95 0 184 4 198 10 24 9 26
14 26 69 0 37 -5 63 -12 68 -7 4 -101 10 -208 13 l-195 5 0 100 0 100 214 3
c142 1 219 6 228 14 10 8 13 30 11 72 l-3 61 -300 3 c-226 2 -304 -1 -313 -10z"/>
<path d="M4369 2363 c-32 -86 -62 -162 -75 -190 -8 -17 -14 -37 -14 -45 0 -8
-4 -18 -8 -23 -4 -6 -18 -37 -31 -70 -13 -33 -29 -74 -37 -92 -8 -17 -14 -37
-14 -45 0 -8 -4 -18 -8 -24 -5 -5 -20 -38 -32 -74 -13 -36 -30 -76 -37 -90 -7
-14 -13 -31 -13 -38 0 -7 -4 -20 -10 -30 -5 -9 -19 -41 -30 -71 -27 -70 -18
-81 64 -81 33 0 66 4 72 8 6 4 21 32 34 62 12 30 28 66 35 80 l14 25 205 3
206 2 19 -42 c11 -24 23 -54 27 -68 17 -59 32 -70 98 -70 85 0 92 6 77 66 -7
27 -16 53 -20 59 -4 5 -18 39 -31 75 -13 36 -27 69 -32 75 -4 5 -8 15 -8 23 0
8 -7 28 -15 45 -8 18 -30 75 -50 127 -19 52 -39 104 -45 115 -5 11 -25 63 -45
115 -38 101 -50 130 -69 170 -11 24 -16 25 -114 28 l-102 3 -11 -28z m133
-210 c10 -9 18 -21 18 -26 0 -9 59 -166 80 -212 39 -88 31 -95 -116 -95 -104
0 -126 3 -131 16 -6 16 11 80 34 124 7 14 13 33 13 42 0 9 4 19 9 22 5 3 12
17 15 30 9 38 45 116 52 116 4 0 16 -7 26 -17z"/>
<path d="M5297 2370 c-145 -61 -199 -148 -177 -286 20 -119 89 -163 340 -219
94 -21 160 -44 183 -63 25 -22 23 -83 -6 -110 -56 -53 -206 -70 -289 -32 -51
23 -67 36 -91 73 -17 27 -21 28 -90 25 l-72 -3 -3 -31 c-6 -59 55 -140 137
-182 65 -33 134 -47 236 -47 230 0 365 96 365 260 0 141 -83 204 -345 260
-114 25 -163 44 -185 73 -35 44 -19 99 39 133 29 17 52 22 118 22 90 0 113 -9
170 -70 32 -33 35 -34 99 -31 84 4 94 16 65 80 -23 51 -100 125 -140 135 -14
3 -32 11 -40 17 -8 6 -66 12 -140 13 -107 3 -133 0 -174 -17z"/>
<path d="M5996 2374 c-3 -8 -6 -203 -6 -433 0 -318 3 -421 13 -434 11 -16 39
-17 312 -15 l300 3 0 70 0 70 -218 3 -218 2 -9 26 c-13 34 -13 160 0 185 10
18 23 19 191 19 105 0 188 4 200 10 15 9 19 22 19 70 0 48 -4 61 -19 70 -12 6
-96 10 -204 10 -159 0 -186 2 -191 16 -3 9 -6 49 -6 89 0 40 3 80 6 89 5 14
34 16 218 16 116 0 217 4 224 9 9 5 12 27 10 72 l-3 64 -306 3 c-273 2 -307 1
-313 -14z"/>
</g>
<g transform="translate(0.000000,390.000000) scale(0.100000,-0.100000)"
fill="#7b7b7b" stroke="none">
<path d="M7145 1950 c-12 -23 -36 -193 -33 -240 1 -33 0 -60 -4 -60 -7 0 -14
-28 -24 -104 l-7 -49 89 5 c109 7 149 26 165 80 17 53 4 103 -31 128 -37 26
-37 38 -4 65 34 27 43 92 18 130 -9 14 -23 25 -30 25 -8 0 -14 4 -14 9 0 9
-120 20 -125 11z m125 -47 c29 -25 28 -102 -2 -130 -23 -22 -41 -26 -90 -24
-27 1 -28 3 -28 60 0 91 11 111 60 111 23 0 48 -7 60 -17z m-6 -193 c14 -5 32
-23 41 -41 14 -26 15 -36 4 -63 -20 -52 -46 -66 -121 -66 l-68 0 0 50 c0 27 4
59 9 72 5 13 12 31 15 41 4 13 16 17 50 17 25 0 56 -4 70 -10z"/>
<path d="M7860 1885 c0 -27 -22 -114 -28 -114 -32 5 -46 -24 -17 -35 19 -7 20
-100 1 -171 -15 -54 -13 -65 10 -65 10 0 14 12 14 42 0 23 4 55 10 72 5 17 12
52 15 79 6 44 8 47 36 47 38 0 40 27 2 32 -25 3 -28 7 -27 38 0 19 4 47 8 63
7 21 5 27 -8 27 -9 0 -16 -7 -16 -15z"/>
<path d="M8250 1755 c-11 -30 -27 -31 -60 -5 -43 34 -105 24 -159 -27 -20 -18
-23 -31 -23 -94 -1 -69 0 -73 32 -100 38 -33 75 -37 127 -12 33 15 36 15 45 0
5 -9 18 -17 28 -17 18 0 20 7 20 58 0 31 6 91 14 132 8 41 12 78 10 82 -10 15
-25 8 -34 -17z m-48 -29 c45 -28 45 -129 0 -171 -57 -53 -129 -40 -163 29 -19
40 -19 42 -2 81 21 46 43 71 70 78 23 6 72 -2 95 -17z"/>
<path d="M7508 1752 c-32 -20 -68 -88 -68 -129 0 -39 52 -111 86 -119 33 -8
113 1 127 15 18 18 0 25 -32 11 -67 -27 -147 15 -139 73 3 21 8 22 116 25 103
2 113 4 107 20 -3 9 -9 30 -12 45 -9 42 -61 77 -114 76 -24 0 -56 -8 -71 -17z
m132 -22 c18 -18 37 -67 29 -74 -2 -2 -46 -6 -96 -8 -87 -5 -93 -4 -93 14 0
26 29 68 54 78 38 15 85 11 106 -10z"/>
</g>
</svg>
