<?xml version="1.0" standalone="no"?>
<!DOCTYPE svg PUBLIC "-//W3C//DTD SVG 20010904//EN"
 "http://www.w3.org/TR/2001/REC-SVG-20010904/DTD/svg10.dtd">
<svg version="1.0" xmlns="http://www.w3.org/2000/svg"
 width="900.000000pt" height="468.000000pt" viewBox="0 0 900.000000 468.000000"
 preserveAspectRatio="xMidYMid meet">
<metadata>
Created by potrace 1.10, written by Peter Selinger 2001-2011
</metadata>
<g transform="translate(0.000000,468.000000) scale(0.100000,-0.100000)"
fill="#ffffff" stroke="none">
<path d="M2160 3622 c-19 -2 -41 -9 -49 -15 -7 -6 -23 -17 -35 -24 -19 -11
-28 -16 -61 -29 -5 -2 -23 -13 -40 -24 -16 -11 -39 -24 -50 -30 -11 -6 -33
-19 -50 -30 -16 -11 -43 -26 -60 -34 -16 -8 -52 -29 -80 -45 -27 -17 -59 -35
-70 -41 -11 -6 -47 -26 -80 -45 -33 -19 -71 -40 -85 -46 l-25 -10 25 -20 c14
-10 36 -22 50 -25 25 -6 89 -35 125 -57 31 -19 115 -108 115 -122 0 -7 7 -26
15 -41 19 -37 19 -75 0 -121 -8 -19 -15 -43 -15 -51 0 -16 -57 -134 -90 -187
-10 -16 -29 -50 -41 -75 -12 -25 -28 -52 -35 -60 -19 -23 -27 -121 -12 -149
15 -28 115 -100 139 -101 9 0 22 -7 29 -15 7 -8 24 -15 39 -15 14 0 35 -7 45
-15 11 -8 34 -15 50 -15 17 -1 42 -7 56 -15 31 -18 92 -19 108 -3 7 7 12 31
12 55 0 24 7 60 15 80 8 19 15 49 15 66 0 17 8 54 17 83 9 30 13 57 9 61 -13
14 -130 20 -185 11 -43 -8 -71 -23 -140 -74 -71 -53 -87 -70 -91 -96 -7 -45
-34 -49 -49 -7 -22 64 -16 76 98 179 38 35 125 96 146 104 6 1 26 9 45 15 19
7 64 17 100 21 109 15 159 32 202 72 39 36 41 40 35 83 -6 40 -3 48 24 80 17
19 38 35 48 35 9 0 25 7 35 15 14 10 45 15 101 15 75 0 83 -2 113 -29 29 -27
32 -36 32 -85 0 -50 2 -56 28 -68 23 -11 27 -20 30 -58 3 -41 -1 -49 -34 -83
-21 -20 -46 -37 -56 -37 -11 0 -29 -5 -40 -11 -15 -8 -26 -8 -44 1 -57 31 -75
-26 -18 -61 34 -21 37 -21 70 -5 19 9 42 16 50 16 14 0 38 10 94 41 8 4 39 20
67 34 29 14 71 43 94 65 46 44 59 49 59 23 0 -51 -35 -100 -114 -158 -86 -65
-112 -81 -138 -91 -9 -3 -19 -12 -22 -20 -3 -8 -14 -14 -25 -14 -11 0 -22 -4
-25 -9 -15 -23 -89 -51 -121 -45 -31 5 -34 3 -54 -39 -12 -25 -53 -81 -91
-125 -68 -79 -70 -82 -70 -136 0 -54 0 -54 43 -75 24 -12 50 -21 59 -21 9 0
21 -7 28 -15 7 -8 18 -15 25 -15 16 0 105 -47 128 -67 19 -18 24 -97 6 -108
-5 -4 -15 -17 -20 -28 -5 -12 -18 -35 -29 -52 -11 -16 -24 -40 -29 -52 -5 -11
-15 -24 -20 -28 -17 -10 -13 -45 9 -72 31 -40 26 -53 -17 -46 -21 3 -50 12
-65 19 -15 8 -35 14 -46 14 -23 0 -42 19 -42 42 0 19 37 95 51 104 5 3 9 13 9
23 0 10 7 24 16 31 8 8 14 25 12 39 -3 26 -3 26 -118 32 l-115 5 -54 -48 c-54
-47 -56 -48 -121 -48 -43 0 -73 5 -86 15 -10 8 -27 15 -37 15 -11 0 -31 6 -45
13 -15 8 -45 22 -67 32 -22 9 -47 21 -55 26 -36 22 -43 20 -79 -15 -20 -20
-42 -36 -49 -36 -17 0 -15 42 3 66 8 10 15 27 15 36 0 9 8 33 18 52 14 29 23
36 48 36 17 0 37 -7 44 -15 7 -8 21 -15 30 -15 10 0 33 -7 52 -16 76 -38 90
-44 107 -44 9 0 22 -5 28 -11 17 -17 33 -1 33 34 0 18 7 41 15 51 8 11 15 29
15 41 0 12 7 30 15 41 8 10 15 27 15 36 0 22 -49 48 -93 48 -18 0 -42 7 -53
15 -10 8 -30 15 -42 15 -13 0 -36 6 -50 14 -15 7 -49 24 -77 36 -70 32 -141
86 -170 128 -20 29 -25 49 -25 95 0 53 8 78 41 137 5 8 11 21 14 27 13 33 16
40 35 68 11 17 42 76 70 132 44 89 50 110 50 163 0 51 -5 67 -26 96 -28 36
-106 94 -128 94 -7 0 -21 7 -32 15 -10 8 -30 15 -44 15 -14 0 -36 7 -50 15
-50 29 -109 15 -205 -45 -16 -11 -45 -26 -63 -34 -54 -25 -105 -85 -125 -147
-15 -50 -17 -110 -17 -600 1 -501 2 -548 19 -597 19 -54 60 -107 96 -123 21
-10 98 -53 155 -88 19 -11 44 -25 55 -31 11 -6 43 -24 70 -41 28 -16 64 -37
80 -45 17 -8 44 -23 60 -34 17 -11 39 -24 50 -30 11 -5 47 -26 80 -45 33 -19
69 -39 80 -45 11 -6 43 -24 70 -41 28 -16 64 -37 80 -45 17 -8 44 -23 60 -34
17 -11 37 -23 45 -27 8 -4 37 -19 63 -35 82 -48 149 -40 262 33 17 10 37 21
45 25 8 3 22 10 30 15 8 5 24 14 35 19 11 6 34 19 50 30 17 11 40 24 52 29 11
5 24 15 28 20 3 6 12 11 20 11 8 0 31 12 52 26 21 14 47 30 58 35 11 5 34 18
50 29 17 11 44 26 60 34 17 8 53 29 80 45 28 17 59 35 70 41 11 6 36 20 55 31
19 12 55 32 80 46 25 13 59 33 75 44 17 10 39 23 50 28 31 15 61 43 81 76 18
27 19 62 22 595 2 311 0 594 -3 630 -6 61 -10 68 -54 110 -25 25 -71 58 -101
73 -30 16 -68 37 -85 47 -32 20 -89 52 -145 83 -19 10 -48 27 -65 38 -16 10
-39 23 -50 28 -11 5 -37 21 -58 35 -21 14 -44 26 -52 26 -8 0 -17 5 -20 11 -4
5 -17 14 -28 20 -23 9 -31 14 -105 62 -24 15 -49 27 -57 27 -8 0 -17 5 -20 11
-4 5 -17 15 -28 20 -12 5 -35 18 -52 29 -16 11 -40 24 -52 29 -11 5 -24 15
-28 20 -3 6 -13 11 -22 11 -9 0 -24 6 -32 14 -18 15 -88 24 -141 18z"/>
<path d="M3912 2873 l-22 -4 2 -537 3 -537 370 0 370 0 3 86 3 86 -33 7 c-18
4 -136 6 -262 6 -126 -1 -233 3 -238 8 -5 5 -7 62 -6 128 l3 119 230 3 c267 3
255 -2 255 102 0 102 7 99 -261 102 l-224 3 0 120 0 120 265 5 265 5 3 86 c3
83 2 87 -20 93 -26 6 -670 6 -706 -1z"/>
<path d="M5263 2870 c-13 -5 -23 -16 -23 -24 0 -8 -7 -28 -15 -45 -8 -17 -22
-45 -30 -62 -8 -17 -15 -38 -15 -48 0 -9 -7 -26 -15 -37 -8 -10 -15 -28 -15
-40 0 -11 -7 -29 -15 -40 -8 -10 -15 -28 -15 -39 0 -11 -7 -29 -15 -39 -8 -11
-15 -30 -15 -42 0 -12 -7 -27 -15 -34 -8 -7 -15 -22 -15 -34 0 -12 -7 -31 -15
-42 -8 -10 -15 -27 -15 -36 0 -16 -6 -30 -44 -106 -9 -19 -16 -41 -16 -51 0
-9 -7 -26 -15 -37 -8 -10 -15 -28 -15 -40 0 -11 -7 -29 -15 -40 -8 -10 -15
-27 -15 -36 0 -9 -6 -29 -14 -45 -41 -85 -47 -103 -44 -129 l3 -29 94 0 c74 0
95 3 101 15 4 8 14 30 23 48 9 19 17 39 17 45 0 6 9 30 21 54 l21 43 243 0
243 0 21 -34 c12 -18 21 -42 21 -53 0 -12 7 -26 15 -33 8 -7 15 -22 15 -35 0
-42 29 -55 123 -55 l87 0 0 43 c0 23 -7 51 -15 61 -8 11 -15 29 -15 40 0 12
-7 30 -15 40 -8 11 -15 29 -15 40 0 12 -7 30 -15 40 -8 11 -15 30 -15 42 0 12
-7 27 -15 34 -8 7 -15 22 -15 34 0 12 -7 31 -15 42 -8 10 -15 28 -15 39 0 11
-7 29 -15 39 -8 11 -15 30 -15 42 0 12 -7 27 -15 34 -8 7 -15 22 -15 34 0 12
-7 31 -15 42 -8 10 -15 28 -15 39 0 11 -7 29 -15 39 -8 11 -15 28 -15 37 0 10
-7 32 -16 51 -38 76 -44 90 -44 107 0 9 -7 26 -15 37 -8 10 -15 25 -15 33 0 8
-8 31 -17 52 -13 27 -26 39 -47 43 -43 9 -188 6 -213 -4z m146 -305 c7 -17 20
-43 27 -58 8 -16 14 -36 14 -46 0 -9 7 -26 15 -37 8 -10 15 -28 15 -39 0 -11
7 -29 15 -39 8 -11 15 -28 15 -38 0 -10 7 -30 16 -43 8 -13 14 -34 12 -47 -3
-23 -5 -23 -154 -26 -128 -2 -153 0 -164 13 -11 14 -11 21 3 45 9 15 17 37 17
48 0 11 7 25 15 32 8 7 15 22 15 34 0 12 7 31 15 42 8 10 15 28 15 40 0 11 7
29 15 40 8 10 15 27 15 36 0 27 34 78 50 76 8 -2 21 -17 29 -33z"/>
<path d="M6441 2873 c-30 -2 -64 -11 -75 -19 -11 -8 -28 -14 -37 -14 -28 0
-126 -78 -158 -126 -30 -43 -31 -49 -31 -153 0 -105 1 -109 32 -152 17 -24 41
-51 52 -59 26 -18 58 -38 71 -43 49 -19 86 -30 120 -36 22 -4 50 -13 62 -19
12 -7 39 -12 60 -12 21 0 51 -7 67 -15 15 -8 40 -15 55 -15 15 0 36 -7 47 -15
10 -8 27 -15 36 -15 17 0 58 -57 58 -82 0 -22 -69 -98 -89 -98 -10 0 -32 -7
-49 -16 -24 -12 -53 -14 -119 -11 -120 6 -156 20 -216 90 l-50 57 -82 0 c-79
0 -83 -1 -89 -24 -15 -62 33 -158 107 -211 52 -37 107 -65 128 -65 9 0 33 -7
52 -15 50 -21 281 -21 317 0 14 8 34 14 44 15 59 1 226 133 226 179 0 10 7 38
15 61 13 38 13 48 -2 107 -14 52 -27 75 -63 112 -25 25 -63 54 -85 64 -22 11
-53 25 -68 33 -16 8 -43 14 -60 14 -18 1 -43 7 -57 15 -14 8 -42 14 -63 15
-21 0 -54 7 -74 15 -19 8 -47 15 -62 15 -15 0 -32 5 -38 11 -6 6 -22 17 -35
23 -35 18 -58 73 -45 111 23 69 79 95 205 95 95 0 101 -1 142 -31 24 -18 54
-45 68 -60 23 -28 28 -29 107 -29 101 0 112 8 94 72 -7 24 -18 50 -26 59 -7 8
-13 20 -13 25 0 24 -79 77 -190 127 -37 17 -193 27 -289 20z"/>
<path d="M7212 2873 l-22 -4 2 -537 3 -537 370 0 370 0 3 86 3 86 -33 7 c-18
4 -136 6 -262 6 -126 -1 -233 3 -238 8 -5 5 -7 62 -6 128 l3 119 230 3 c225 2
230 3 247 25 12 15 18 41 18 78 0 93 0 93 -269 99 l-226 5 0 120 0 120 265 5
265 5 3 86 c3 83 2 87 -20 93 -26 6 -670 6 -706 -1z"/>
</g>
</svg>
