<?xml version="1.0" standalone="no"?>
<!DOCTYPE svg PUBLIC "-//W3C//DTD SVG 20010904//EN"
 "http://www.w3.org/TR/2001/REC-SVG-20010904/DTD/svg10.dtd">
<svg version="1.0" xmlns="http://www.w3.org/2000/svg"
 width="5520.000000pt" height="1160.000000pt" viewBox="0 0 5520.000000 1160.000000"
 preserveAspectRatio="xMidYMid meet">
<metadata>
Created by potrace 1.15, written by Peter Selinger 2001-2017
</metadata>
<g transform="translate(0.000000,1160.000000) scale(0.100000,-0.100000)"
fill="#FFFFFF" stroke="none">
<path d="M4959 11586 c-30 -7 -86 -23 -124 -37 -78 -27 -2972 -1685 -2989
-1712 -16 -26 -1 -34 145 -78 403 -122 738 -284 962 -467 211 -172 355 -400
404 -641 23 -114 20 -320 -7 -455 -59 -298 -188 -589 -502 -1131 -197 -340
-261 -457 -317 -583 -144 -321 -157 -486 -51 -650 191 -296 784 -588 1618
-796 232 -58 421 -98 433 -90 39 24 62 119 218 894 87 434 155 794 151 799
-12 21 -237 35 -565 36 -293 0 -337 -2 -389 -18 -118 -37 -260 -123 -496 -302
-138 -105 -384 -308 -395 -325 -3 -5 -39 -102 -80 -216 -41 -114 -77 -209 -80
-212 -16 -16 -30 37 -77 282 -44 235 -49 273 -39 307 9 29 38 63 124 143 359
334 737 637 907 725 143 74 291 113 750 196 399 73 543 108 640 156 158 79
363 246 405 330 29 57 31 110 10 249 -19 122 -19 223 -1 259 45 86 231 200
461 281 173 60 343 79 554 61 197 -18 274 -43 382 -127 80 -63 101 -106 100
-203 0 -42 -5 -101 -11 -130 -14 -76 -12 -167 4 -199 21 -40 72 -84 150 -132
104 -63 126 -81 153 -128 24 -40 25 -50 20 -125 -6 -91 -22 -145 -76 -257 -45
-95 -122 -173 -217 -223 -93 -48 -261 -104 -352 -117 -64 -9 -80 -8 -134 11
-34 11 -83 31 -109 45 -55 27 -87 30 -114 10 -21 -15 -33 -100 -34 -233 l-1
-73 38 -16 c81 -34 247 -74 307 -74 85 0 203 32 385 103 184 72 578 268 848
422 l194 110 155 162 c85 90 161 163 169 163 8 0 17 -7 21 -15 8 -24 -153
-510 -180 -539 -31 -36 -485 -357 -799 -566 -304 -203 -543 -349 -702 -426
-131 -65 -162 -67 -358 -28 -71 14 -133 22 -137 18 -4 -5 -13 -38 -20 -73 -14
-74 -58 -187 -107 -281 -59 -113 -220 -312 -499 -616 -123 -134 -137 -153
-155 -212 -30 -95 -43 -196 -38 -284 4 -70 8 -83 43 -134 65 -95 153 -148 400
-241 66 -25 188 -76 270 -115 478 -224 575 -281 643 -382 28 -42 32 -57 32
-113 0 -181 -203 -569 -542 -1036 -43 -59 -78 -114 -78 -121 0 -7 72 -95 160
-196 88 -101 160 -186 160 -190 0 -4 -9 -15 -20 -25 -20 -18 -30 -15 -427 114
-262 85 -415 139 -430 153 -12 11 -28 37 -34 56 -11 34 -8 42 87 232 55 108
164 322 243 476 117 228 143 286 137 307 l-6 27 -273 -1 c-382 -1 -519 18
-700 96 l-83 36 -165 -164 c-174 -174 -286 -265 -396 -319 -67 -33 -70 -33
-203 -33 -114 1 -152 5 -243 29 -275 70 -623 206 -1064 415 -106 50 -205 91
-220 91 -22 0 -71 -39 -226 -175 -111 -99 -207 -175 -218 -175 -13 0 -19 7
-19 23 0 25 314 885 328 899 6 6 290 -107 685 -271 372 -155 685 -281 696
-281 16 0 22 11 31 58 36 183 146 524 267 826 62 156 73 190 61 201 -7 7 -80
27 -163 45 -482 105 -1001 279 -1345 451 -377 189 -614 393 -731 630 -47 94
-60 145 -66 259 -14 272 87 530 476 1210 207 360 327 596 386 755 197 530 102
872 -320 1155 -232 155 -559 284 -1006 395 -123 30 -228 55 -235 55 -15 0
-960 -540 -1034 -591 -76 -51 -179 -160 -233 -244 -56 -88 -92 -173 -117 -278
-20 -81 -20 -127 -20 -2652 0 -2525 0 -2571 20 -2652 11 -46 31 -111 46 -145
59 -142 191 -304 314 -388 102 -69 4364 -2513 4432 -2541 116 -48 208 -64 353
-63 148 2 237 21 357 77 145 68 4392 2518 4461 2574 126 102 227 258 284 439
l28 89 0 2595 c0 2489 -1 2598 -18 2660 -33 114 -76 214 -124 288 -56 85 -167
199 -238 247 -72 48 -4284 2469 -4378 2517 -121 61 -243 88 -396 87 -69 -1
-151 -7 -182 -13z"/>
<path d="M12820 8261 c-19 -10 -48 -35 -65 -55 l-30 -38 -3 -2327 -2 -2327 29
-46 c19 -30 44 -52 73 -67 l44 -21 1550 0 c1491 0 1551 1 1590 19 49 22 88 70
103 126 15 55 15 532 0 592 -17 64 -70 117 -138 137 -49 14 -172 16 -1142 16
-776 0 -1095 3 -1112 11 -14 6 -30 22 -36 36 -8 16 -11 181 -11 533 l0 509 24
28 24 28 1024 5 1024 5 36 24 c19 13 46 40 59 59 l24 36 0 316 0 316 -24 36
c-13 19 -40 46 -59 59 l-36 24 -1024 5 -1024 5 -24 28 -24 28 0 493 c0 471 1
495 19 517 l19 24 1134 5 c1041 5 1136 6 1164 22 40 22 92 81 101 116 10 35
10 579 0 614 -10 38 -65 98 -104 114 -27 12 -304 14 -1590 14 -1499 0 -1560
-1 -1593 -19z"/>
<path d="M18834 8261 c-53 -24 -97 -79 -133 -166 -16 -38 -415 -1064 -886
-2280 -839 -2162 -857 -2211 -853 -2267 3 -45 11 -66 34 -94 60 -74 59 -74
429 -74 l331 0 50 25 c28 14 63 43 81 68 20 27 82 175 178 422 98 255 154 388
171 405 l24 25 1075 0 1075 0 24 -25 c15 -16 76 -161 166 -395 78 -203 148
-381 155 -395 24 -47 89 -105 131 -118 64 -19 676 -17 713 2 76 40 123 136
103 209 -6 23 -403 1052 -882 2287 -574 1479 -882 2262 -905 2296 -23 35 -48
58 -77 73 -43 20 -56 21 -504 21 -425 0 -462 -2 -500 -19z m537 -1241 c10 -6
25 -23 34 -39 37 -73 645 -1663 645 -1689 0 -18 -10 -37 -26 -53 l-26 -24
-668 0 -668 0 -26 24 c-16 16 -26 35 -26 53 0 26 608 1616 645 1689 24 46 72
62 116 39z"/>
<path d="M24200 8269 c-527 -64 -983 -280 -1243 -587 -262 -311 -353 -663
-282 -1099 27 -166 93 -338 176 -460 79 -115 241 -261 385 -346 226 -132 658
-265 1324 -407 271 -58 498 -114 609 -150 212 -69 344 -158 398 -268 25 -50
28 -68 28 -152 0 -86 -3 -101 -32 -162 -88 -186 -324 -318 -668 -375 -155 -25
-587 -25 -723 0 -256 48 -462 154 -572 292 -25 31 -72 100 -105 153 -70 111
-120 155 -195 171 -69 15 -602 15 -655 0 -24 -7 -57 -29 -84 -55 l-44 -44 6
-108 c7 -135 40 -254 106 -387 205 -410 672 -720 1271 -843 251 -52 310 -57
660 -56 283 0 343 3 465 22 781 122 1296 475 1476 1012 98 294 72 671 -64 935
-161 310 -448 517 -943 678 -197 64 -314 94 -779 197 -619 137 -776 185 -919
281 -82 54 -114 92 -154 177 -25 52 -27 67 -27 182 0 116 2 129 28 181 118
242 490 386 942 365 245 -11 423 -51 543 -123 146 -88 210 -149 339 -323 28
-38 68 -77 97 -95 l49 -30 321 -3 c177 -2 335 -1 352 3 48 8 112 69 125 117
29 111 -59 389 -182 570 -199 293 -564 532 -1015 663 -49 14 -154 38 -234 52
-128 23 -177 26 -425 29 -154 1 -314 -2 -355 -7z"/>
<path d="M27460 8261 c-19 -10 -48 -35 -65 -55 l-30 -38 -3 -2327 -2 -2327 29
-46 c19 -30 44 -52 73 -67 l44 -21 1550 0 c1491 0 1551 1 1590 19 49 22 88 70
103 126 15 55 15 532 0 592 -17 64 -70 117 -138 137 -49 14 -172 16 -1142 16
-776 0 -1095 3 -1112 11 -14 6 -30 22 -36 36 -8 16 -11 181 -11 533 l0 509 24
28 24 28 1024 5 1024 5 36 24 c19 13 46 40 59 59 l24 36 0 316 0 316 -24 36
c-13 19 -40 46 -59 59 l-36 24 -1024 5 -1024 5 -24 28 -24 28 0 493 c0 471 1
495 19 517 l19 24 1134 5 c1041 5 1136 6 1164 22 40 22 92 81 101 116 10 35
10 579 0 614 -10 38 -65 98 -104 114 -27 12 -304 14 -1590 14 -1499 0 -1560
-1 -1593 -19z"/>
<path d="M34720 8269 c-527 -64 -983 -280 -1243 -587 -262 -311 -353 -663
-282 -1099 27 -166 93 -338 176 -460 79 -115 241 -261 385 -346 226 -132 658
-265 1324 -407 271 -58 498 -114 609 -150 212 -69 344 -158 398 -268 25 -50
28 -68 28 -152 0 -86 -3 -101 -32 -162 -88 -186 -324 -318 -668 -375 -155 -25
-587 -25 -723 0 -256 48 -462 154 -572 292 -25 31 -72 100 -105 153 -70 111
-120 155 -195 171 -69 15 -602 15 -655 0 -24 -7 -57 -29 -84 -55 l-44 -44 6
-108 c7 -135 40 -254 106 -387 205 -410 672 -720 1271 -843 251 -52 310 -57
660 -56 283 0 343 3 465 22 781 122 1296 475 1476 1012 98 294 72 671 -64 935
-161 310 -448 517 -943 678 -197 64 -314 94 -779 197 -619 137 -776 185 -919
281 -82 54 -114 92 -154 177 -25 52 -27 67 -27 182 0 116 2 129 28 181 118
242 490 386 942 365 245 -11 423 -51 543 -123 146 -88 210 -149 339 -323 28
-38 68 -77 97 -95 l49 -30 321 -3 c177 -2 335 -1 352 3 48 8 112 69 125 117
29 111 -59 389 -182 570 -199 293 -564 532 -1015 663 -49 14 -154 38 -234 52
-128 23 -177 26 -425 29 -154 1 -314 -2 -355 -7z"/>
<path d="M37975 8262 c-40 -26 -71 -61 -84 -95 -8 -20 -11 -726 -11 -2338 0
-1917 2 -2315 14 -2342 17 -43 78 -95 118 -102 18 -3 170 -5 338 -3 305 3 305
3 341 27 50 34 77 77 89 140 6 34 10 348 10 832 0 427 3 785 6 794 18 45 21
45 781 45 775 0 815 3 1025 55 196 50 405 149 532 252 114 92 275 321 347 493
42 99 95 311 110 441 7 57 12 205 12 329 0 186 -4 246 -22 344 -40 225 -121
420 -262 637 -144 221 -357 369 -639 443 -237 63 -153 59 -1470 63 -1166 3
-1206 3 -1235 -15z m2320 -877 c109 -29 203 -83 285 -165 130 -129 168 -236
177 -485 6 -176 -4 -234 -68 -363 -68 -139 -180 -232 -317 -261 -37 -8 -283
-11 -793 -11 l-740 0 -24 25 -25 24 0 601 0 601 25 24 24 25 698 0 c598 0 707
-2 758 -15z"/>
<path d="M43594 8261 c-53 -24 -97 -79 -133 -166 -16 -38 -415 -1064 -886
-2280 -838 -2161 -857 -2211 -853 -2267 3 -45 11 -66 34 -94 60 -74 59 -74
429 -74 l331 0 50 25 c28 14 63 43 81 68 20 27 82 175 178 422 98 255 154 388
171 405 l24 25 1075 0 1075 0 24 -25 c15 -16 76 -161 166 -395 78 -203 148
-381 155 -395 24 -47 89 -105 131 -118 64 -19 676 -17 713 2 76 40 123 136
103 209 -6 23 -403 1052 -882 2287 -574 1479 -882 2262 -905 2296 -23 35 -48
58 -77 73 -43 20 -56 21 -504 21 -425 0 -462 -2 -500 -19z m537 -1241 c10 -6
25 -23 34 -39 37 -73 645 -1663 645 -1689 0 -18 -10 -37 -26 -53 l-26 -24
-668 0 -668 0 -26 24 c-16 16 -26 35 -26 53 0 26 608 1616 645 1689 24 46 72
62 116 39z"/>
<path d="M48736 8269 c-524 -71 -941 -315 -1256 -734 -243 -324 -388 -711
-457 -1220 -22 -166 -26 -804 -5 -955 68 -497 183 -833 391 -1146 304 -457
735 -727 1297 -811 165 -24 556 -24 699 0 559 97 966 378 1271 877 129 212
257 538 258 657 1 54 -3 66 -30 100 -58 73 -58 73 -430 73 l-330 0 -52 -26
c-60 -30 -88 -71 -126 -180 -124 -365 -350 -579 -686 -650 -134 -28 -347 -24
-474 10 -190 50 -325 133 -476 294 -267 283 -383 707 -367 1337 11 417 64 678
196 950 129 266 330 461 558 540 153 53 342 68 523 40 233 -35 391 -114 530
-262 87 -94 138 -178 186 -308 55 -152 60 -161 100 -192 l37 -28 397 -3 c388
-3 397 -2 423 18 30 24 47 73 40 116 -41 257 -118 468 -243 669 -180 288 -407
498 -685 635 -198 97 -366 149 -595 185 -123 20 -584 29 -694 14z"/>
<path d="M51900 8261 c-19 -10 -48 -35 -65 -55 l-30 -38 -3 -2327 -2 -2327 29
-46 c19 -30 44 -52 73 -67 l44 -21 1550 0 c1491 0 1551 1 1590 19 49 22 88 70
103 126 15 55 15 532 0 592 -17 64 -70 117 -138 137 -49 14 -172 16 -1142 16
-776 0 -1095 3 -1112 11 -14 6 -30 22 -36 36 -8 16 -11 181 -11 533 l0 509 24
28 24 28 1024 5 1024 5 36 24 c19 13 46 40 59 59 l24 36 0 316 0 316 -24 36
c-13 19 -40 46 -59 59 l-36 24 -1024 5 -1024 5 -24 28 -24 28 0 493 c0 471 1
495 19 517 l19 24 1134 5 c1041 5 1136 6 1164 22 40 22 92 81 101 116 5 15 8
153 8 307 0 154 -3 292 -8 307 -10 38 -65 98 -104 114 -27 12 -304 14 -1590
14 -1499 0 -1560 -1 -1593 -19z"/>
<path d="M31675 4226 c-40 -17 -84 -63 -101 -103 -11 -25 -14 -100 -14 -325 0
-285 1 -294 23 -333 12 -21 42 -53 65 -70 l44 -30 266 -3 c226 -3 272 -1 308
13 52 20 109 81 123 132 15 53 14 550 0 594 -17 51 -55 97 -99 119 -36 19 -59
20 -312 20 -204 -1 -281 -4 -303 -14z"/>
</g>
</svg>
